<svg width="81" height="81" viewBox="0 0 81 81" fill="none" xmlns="http://www.w3.org/2000/svg">
<circle cx="40.1411" cy="40.2688" r="40" fill="white"/>
<path d="M13.2185 49.7688H10.3108V27.0125H14.3879L28.2156 42.6416V27.0125H31.1075V49.7688H27.0303L13.2185 34.1554V49.7688Z" fill="#141414"/>
<path d="M57.2141 43.5898C57.2141 44.2325 57.1087 44.833 56.898 45.3914C56.6873 45.9497 56.3976 46.4607 56.0288 46.9243C55.6601 47.3773 55.2282 47.7829 54.733 48.1411C54.2484 48.4993 53.7216 48.7995 53.1527 49.0419C52.5943 49.2842 52.0149 49.4685 51.4144 49.595C50.8138 49.7109 50.2239 49.7688 49.6444 49.7688H36.2593V27.0125H48.4908C49.0281 27.0125 49.5917 27.0546 50.1817 27.1389C50.7717 27.2126 51.3459 27.3338 51.9043 27.5024C52.4732 27.6709 53.0105 27.8922 53.5162 28.1661C54.0324 28.44 54.4801 28.7771 54.8594 29.1775C55.2492 29.5673 55.5547 30.0203 55.776 30.5365C56.0078 31.0528 56.1237 31.6428 56.1237 32.3065C56.1237 32.9386 55.9972 33.5128 55.7444 34.029C55.4915 34.5452 55.1491 35.0088 54.7172 35.4197C54.2958 35.82 53.8059 36.1782 53.2475 36.4943C52.6997 36.7998 52.1202 37.0685 51.5092 37.3002C52.2783 37.5109 53.0052 37.7901 53.69 38.1378C54.3853 38.4855 54.9911 38.9121 55.5073 39.4178C56.0341 39.9235 56.4502 40.524 56.7558 41.2194C57.0613 41.9042 57.2141 42.6943 57.2141 43.5898ZM49.755 32.8596C49.755 31.5743 49.4126 30.6366 48.7278 30.0467C48.0536 29.4567 47.0896 29.1617 45.8359 29.1617H42.5331V36.5417H45.2986C45.8675 36.5417 46.4206 36.4732 46.9579 36.3362C47.4952 36.1888 47.9693 35.9675 48.3802 35.6725C48.8016 35.367 49.1335 34.9825 49.3758 34.5189C49.6286 34.0553 49.755 33.5022 49.755 32.8596ZM50.8613 43.1948C50.8613 42.5732 50.7822 41.9937 50.6242 41.4564C50.4662 40.9086 50.2239 40.4398 49.8973 40.05C49.5707 39.6496 49.1598 39.3388 48.6646 39.1176C48.18 38.8858 47.6058 38.7699 46.9421 38.7699H42.5331V47.5564H46.389C47.0317 47.5564 47.6269 47.451 48.1747 47.2403C48.7226 47.0296 49.1967 46.7346 49.597 46.3554C49.9974 45.9761 50.3081 45.5178 50.5294 44.9805C50.7506 44.4432 50.8613 43.8479 50.8613 43.1948Z" fill="#694C69"/>
<path d="M72.4465 47.2055C72.1301 46.8125 71.8135 46.4195 71.4971 46.0266C71.6561 45.9211 71.739 45.7284 71.595 45.5285C71.4819 45.3641 71.3694 45.1993 71.2567 45.0346C71.593 45.1392 71.9989 44.8196 71.7746 44.4358C71.4007 43.7962 71.0353 43.1523 70.6736 42.5062C70.9697 42.8316 71.2693 43.1541 71.5731 43.4732C71.9142 43.8313 72.5011 43.3727 72.2583 42.9589C71.8656 42.2898 71.4886 41.6129 71.1241 40.9297C71.3003 41.1038 71.4763 41.278 71.6525 41.4521C72.0063 41.8018 72.5713 41.3579 72.3383 40.9374C72.1814 40.6543 72.0246 40.3712 71.8677 40.0881C72.1923 40.1789 72.5725 39.7964 72.3676 39.4556C72.2707 39.2946 72.174 39.1334 72.0771 38.9725C72.3212 38.9339 72.5434 38.7032 72.4509 38.4411C72.2376 37.8365 71.9128 36.6068 71.2603 36.3254C71.0726 36.2446 70.8973 36.2571 70.7405 36.3907C70.7206 36.4076 70.7009 36.4245 70.681 36.4415C70.5428 36.2906 70.4047 36.1395 70.2667 35.9885C69.9327 35.6234 69.3328 36.0926 69.5801 36.504C69.6356 36.5963 69.6912 36.6887 69.7467 36.7809C69.4758 36.8191 69.2408 37.1382 69.4004 37.4264C69.6412 37.8607 69.8818 38.2949 70.1225 38.7292C70.0334 38.6412 69.9444 38.5532 69.8553 38.465C69.4884 38.1025 68.9706 38.5603 69.1698 38.9796C69.3518 39.3627 69.5381 39.7436 69.7287 40.1223C69.3955 39.7259 69.066 39.3265 68.7442 38.921C68.4084 38.4978 67.7327 38.8473 67.9913 39.3491C68.1701 39.696 68.3524 40.0413 68.5348 40.3865C68.1664 39.9671 67.7919 39.5528 67.4106 39.1438C67.196 38.9137 66.8732 39.0249 66.7384 39.2418C66.4941 38.9614 66.2464 38.6834 65.9942 38.4082C65.8015 38.1979 65.5313 38.3703 65.5034 38.5893C65.1649 38.1747 64.8287 37.7543 64.5406 37.3074C64.6733 37.2904 64.7996 37.2179 64.8666 37.1033C64.9735 36.9206 65.0175 36.7956 64.958 36.5839C64.9397 36.5187 64.8655 36.4278 64.7923 36.3402C64.8491 36.2186 64.8516 36.0741 64.7746 35.9548C64.5839 35.6589 64.1642 35.4964 63.8848 35.7996C63.8406 35.8474 63.8086 35.9028 63.7866 35.9619L63.7784 35.9569C63.4706 35.77 63.0082 36.0839 63.1384 36.4356C63.204 36.6129 63.2804 36.7829 63.3613 36.95C63.3075 36.9223 63.2527 36.8961 63.1965 36.8718C62.8254 36.7115 62.3536 37.0569 62.5999 37.4525C62.6347 37.5084 62.6713 37.5631 62.7064 37.6189C62.5201 37.7363 62.4012 37.9799 62.5304 38.2007C62.8477 38.7431 63.169 39.2835 63.4948 39.8214C63.2176 39.5304 62.94 39.2399 62.6592 38.952C62.311 38.595 61.7382 39.0498 61.9728 39.4673C62.1758 39.8286 62.3842 40.1865 62.5961 40.5424C62.4355 40.6698 62.3391 40.9095 62.4294 41.1162C62.5835 41.4691 62.7461 41.8176 62.9161 42.1624C62.912 42.1578 62.9079 42.1533 62.904 42.1487C62.5831 41.7893 61.9447 42.2625 62.2217 42.661C62.3635 42.8651 62.5055 43.0691 62.6473 43.2732C62.5899 43.3804 62.5803 43.5171 62.6542 43.6659C63.0524 44.4667 63.473 45.255 63.913 46.0324C63.5551 45.6347 63.2015 45.2332 62.8563 44.8241C62.5475 44.4582 62.0242 44.9242 62.217 45.304C62.5277 45.9155 62.8409 46.5257 63.1547 47.1357C62.8791 46.8986 62.6035 46.6615 62.3278 46.4245C62.1038 46.2318 61.7521 46.4166 61.824 46.7098C61.9191 47.0973 62.0913 47.3207 62.4262 47.5454C62.5181 47.607 62.6059 47.6064 62.6763 47.5707C63.1379 48.0063 63.6003 48.4412 64.0672 48.8715C64.377 49.157 64.808 48.7994 64.6359 48.4444C64.497 48.1579 64.3587 47.8713 64.2202 47.5848C64.78 48.1776 65.356 48.7561 65.949 49.3194C66.276 49.63 66.8485 49.2435 66.6289 48.8504C66.9769 48.9711 67.4211 48.6367 67.1632 48.2657C67.1618 48.2636 67.1602 48.2613 67.1587 48.2592C67.369 48.4827 67.5824 48.704 67.8012 48.9206C68.1176 49.2339 68.5502 48.9264 68.5298 48.5824C68.5961 48.6559 68.6615 48.7299 68.7281 48.8031C69.108 49.2199 69.6896 48.6201 69.3464 48.2015C68.2463 46.8596 67.1461 45.5177 66.046 44.1758C65.707 43.7152 65.3758 43.2491 65.0529 42.7775C65.578 43.3647 66.0943 43.9591 66.6051 44.5581C67.583 45.9093 68.6258 47.2152 69.7637 48.4513C70.0887 48.8044 70.7499 48.326 70.4497 47.9362C69.9027 47.226 69.3451 46.524 68.7798 45.8281C69.2863 46.4138 69.7997 46.9942 70.3268 47.563C70.7091 47.9757 71.2906 47.3789 70.9439 46.9626C69.4767 45.2013 68.0094 43.4399 66.5423 41.6787C66.4021 41.4914 66.2612 41.3046 66.123 41.1158C66.5097 41.569 66.8963 42.0221 67.283 42.4752L71.8307 47.8054C72.1923 48.23 72.7857 47.6268 72.4465 47.2055Z" fill="#D8BFD8"/>
<path d="M72.4211 47.1897C72.2872 46.1829 72.2559 45.142 72.1883 44.1286C72.0581 42.1743 72.0822 40.2132 71.9719 38.2589C72.2224 36.9637 70.8999 35.7005 69.6504 35.3417C69.6044 35.3285 69.5626 35.328 69.525 35.3356C69.5297 34.214 69.5013 33.0904 69.4871 31.9733C69.4758 31.087 69.4609 30.2009 69.4423 29.315C69.4246 28.4663 69.477 27.5786 69.3318 26.7408C69.3131 26.6329 69.2377 26.5883 69.1553 26.5886C68.8458 26.1466 68.0502 25.9101 67.5734 25.812C66.5716 25.6061 65.1846 25.7194 64.4191 26.4533C64.3609 26.5091 64.3569 26.5912 64.3849 26.6596C64.2868 26.6867 64.2066 26.764 64.2097 26.8936C64.2754 29.7626 64.2185 32.6727 64.3727 35.5505C63.1913 35.2957 62.0161 36.1045 61.8728 37.2669C61.8614 37.2862 61.8526 37.3083 61.8499 37.3352C61.6751 38.9867 61.7045 40.6606 61.6775 42.3192C61.6508 43.9478 61.4496 45.6861 61.645 47.3034C61.6596 47.424 61.7814 47.5095 61.8927 47.516C64.5729 50.1754 69.0447 49.2614 72.1955 48.0627C72.2691 48.0347 72.3164 47.9846 72.3414 47.9268C72.5972 47.802 72.4487 47.3966 72.4211 47.1897ZM68.9336 29.4551C68.9528 30.3412 68.9684 31.2273 68.9803 32.1134C69.0027 33.7781 68.9674 35.4519 69.039 37.1161C69.0312 37.126 69.0223 37.1341 69.0161 37.1468C68.638 37.9233 68.1841 38.3681 67.262 38.4721C66.4622 38.5622 65.3011 38.4802 65.0041 37.5884C64.9885 37.5418 64.9509 37.5168 64.9105 37.5106C65.0739 34.1154 64.8311 30.6687 64.742 27.2685C65.3101 27.8556 66.1723 28.0847 67.0034 28.154C67.5988 28.2036 68.3785 28.1456 68.8655 27.7502C68.8734 28.3201 68.9216 28.8965 68.9336 29.4551ZM66.6327 26.1865C67.0929 26.1779 69.2618 26.4278 68.6214 27.3427C68.2734 27.8398 67.2531 27.7395 66.7349 27.6695C65.9647 27.5654 65.2382 27.3135 64.7295 26.7227C65.3699 26.4734 65.9045 26.2 66.6327 26.1865ZM64.3963 35.9512C64.4302 36.5095 64.4717 37.0667 64.5251 37.6217C64.5391 37.7679 64.6786 37.8256 64.7847 37.79C64.9834 39.6321 68.8995 39.3184 69.351 37.6045C69.4126 37.5763 69.4609 37.5189 69.466 37.4307C69.4967 36.9001 69.5122 36.3678 69.5196 35.8348C70.9575 36.255 72.356 38.0832 70.7142 39.1854C69.6842 39.8769 68.0519 40.0149 66.8476 40.0117C65.5471 40.0085 64.0244 39.7245 63.0344 38.833C61.6819 37.6147 62.7177 35.728 64.3963 35.9512ZM62.089 47.291C62.3112 45.7208 62.1729 44.0409 62.1904 42.458C62.2043 41.2077 62.2506 39.949 62.2219 38.6956C63.0092 39.898 64.8922 40.3868 66.2187 40.4859C67.2911 40.5661 68.3814 40.4429 69.4259 40.2031C70.2173 40.0216 71.0536 39.7371 71.5706 39.095C71.5189 40.5936 71.5498 42.1002 71.635 43.5925C71.6859 44.4859 71.762 45.3771 71.8318 46.2692C71.8612 46.6458 71.8085 47.2209 71.9571 47.6334C70.2642 48.2733 68.4868 48.7891 66.654 48.7643C64.9787 48.7415 63.4538 48.2078 62.089 47.291Z" fill="#141414"/>
</svg>
