<svg width="82" height="46" fill="none" xmlns="http://www.w3.org/2000/svg"><path d="M6.93785 35H3.25899V6.20891h5.1584L25.912 25.9828V6.20891h3.6588V35h-5.1584L6.93785 15.2461V35Z" fill="#141414"/><path d="M62.6006 27.1824c0 .8131-.1333 1.5729-.3999 2.2793-.2665.7065-.6331 1.3529-1.0996 1.9394-.4665.5732-1.013 1.0863-1.6395 1.5395-.6131.4532-1.2796.8331-1.9994 1.1397-.7064.3066-1.4395.5398-2.1993.6998-.7598.1466-1.5062.2199-2.2393.2199H36.0888V6.20891H51.564c.6798 0 1.3929.05332 2.1394.15995.7464.09331 1.4729.24659 2.1793.45986.7198.21327 1.3996.49318 2.0394.83974.6531.34656 1.2196.77309 1.6994 1.2796.4932.49318.8798 1.06634 1.1597 1.71944.2932.6532.4399 1.3996.4399 2.2393 0 .7998-.16 1.5262-.4799 2.1794-.3199.6531-.7531 1.2396-1.2996 1.7594-.5332.5065-1.153.9597-1.8594 1.3596-.6931.3865-1.4262.7264-2.1993 1.0197.973.2666 1.8927.6198 2.7591 1.0597.8797.4398 1.6462.9797 2.2993 1.6195.6665.6398 1.193 1.3995 1.5795 2.2792.3866.8664.5798 1.8661.5798 2.9991Zm-9.4371-13.5758c0-1.6261-.4332-2.8124-1.2996-3.5589-.853-.74641-2.0726-1.11963-3.6588-1.11963h-4.1787v9.33713h3.4989c.7198 0 1.4196-.0867 2.0993-.2599.6798-.1866 1.2796-.4666 1.7995-.8398.5332-.3865.953-.873 1.2596-1.4595.3199-.5865.4798-1.2863.4798-2.0994Zm1.3996 13.076c0-.7864-.1-1.5196-.2999-2.1993-.1999-.6932-.5065-1.2863-.9197-1.7795-.4132-.5065-.9331-.8997-1.5595-1.1796-.6132-.2933-1.3396-.4399-2.1794-.4399h-5.5782v11.1166h4.8785c.813 0 1.5661-.1333 2.2593-.3999.6931-.2666 1.2929-.6398 1.7994-1.1197.5065-.4798.8997-1.0596 1.1796-1.7394.28-.6798.4199-1.4329.4199-2.2593Z" fill="#694C69"/><path d="M81.8721 32.1826c-.4003-.4972-.8008-.9944-1.2011-1.4915.201-.1335.306-.3772.1238-.6301-.1431-.2081-.2855-.4165-.428-.625.4254.1324.9391-.272.6552-.7575-.4731-.8093-.9354-1.6239-1.3929-2.4413.3746.4117.7536.8197 1.138 1.2234.4316.4531 1.174-.1272.8669-.6507-.4968-.8465-.9738-1.703-1.435-2.5673.2229.2203.4457.4406.6686.6609.4475.4425 1.1624-.1192.8676-.6512-.1985-.3582-.3969-.7163-.5954-1.0744.4106.1147.8917-.3692.6325-.8003-.1226-.2037-.245-.4077-.3676-.6112.3089-.0489.5899-.3407.4729-.6724-.2698-.7649-.6808-2.3207-1.5062-2.6767-.2376-.1023-.4594-.0865-.6577.0825-.0252.0215-.0502.0429-.0754.0643-.1747-.1909-.3495-.3821-.5241-.573-.4225-.4619-1.1815.1317-.8686.6521.0702.1168.1405.2337.2107.3504-.3427.0483-.6401.452-.4381.8167.3046.5494.609 1.0987.9136 1.6482-.1128-.1114-.2253-.2227-.3381-.3342-.4642-.4587-1.1193.1205-.8673.6511.2304.4846.4661.9665.7071 1.4457-.4216-.5016-.8383-1.0069-1.2455-1.52-.4249-.5354-1.2798-.0931-.9526.5418.2262.4388.4569.8757.6876 1.3124-.466-.5306-.9398-1.0548-1.4223-1.5722-.2715-.2911-.6799-.1504-.8504.1239-.3091-.3547-.6225-.7064-.9415-1.0546-.2439-.2661-.5857-.0479-.6211.2292-.4282-.5246-.8535-1.0565-1.2181-1.622.1679-.0214.3277-.1131.4125-.2581.1352-.2312.1909-.3893.1156-.6572-.0232-.0825-.1171-.1975-.2096-.3083.0718-.1538.075-.3367-.0224-.4876-.2413-.3744-.7723-.5799-1.1258-.1964-.0559.0605-.0964.1306-.1242.2054l-.0104-.0063c-.3894-.2366-.9745.1607-.8097.6056.083.2243.1796.4394.282.6508-.0681-.035-.1374-.0681-.2085-.0989-.4695-.2029-1.0665.2342-.7548.7346.044.0708.0903.14.1348.2106-.2358.1485-.3863.4567-.2228.7361.4014.6862.808 1.3699 1.2202 2.0505-.3507-.3682-.7019-.7357-1.0573-1.1-.4404-.4516-1.1651.1238-.8683.652.2568.457.5204.9099.7885 1.3601-.2031.1613-.3251.4645-.2108.7261.1949.4464.4006.8874.6158 1.3235-.0052-.0057-.0104-.0115-.0154-.0173-.406-.4547-1.2137.144-.8632.6482.1794.2582.359.5164.5385.7745-.0726.1357-.0849.3086.0087.4969.5038 1.0132 1.0359 2.0105 1.5927 2.9941-.4529-.5031-.9003-1.0112-1.337-1.5288-.3907-.4629-1.0528.1267-.8088.6072.3931.7737.7893 1.5457 1.1863 2.3175-.3487-.3-.6973-.6-1.0461-.8999-.2835-.2438-.7284-.0099-.6375.361.1203.4902.3382.7729.7619 1.0572.1163.078.2274.0772.3164.032.584.5511 1.1691 1.1013 1.7597 1.6457.392.3612.9373-.0911.7195-.5403-.1757-.3624-.3506-.7251-.5258-1.0875.7082.7499 1.437 1.4819 2.1872 2.1946.4137.3929 1.138-.096.8603-.5934.4403.1527 1.0022-.2704.676-.7397-.0019-.0028-.0039-.0056-.0058-.0083.2661.2828.5361.5628.8129.8368.4003.3963.9476.0074.9218-.4279.0839.093.1667.1866.2509.2792.4807.5274 1.2165-.2314.7823-.7611-1.3918-1.6978-2.7838-3.3955-4.1756-5.0933-.429-.5828-.848-1.1724-1.2565-1.7691.6644.743 1.3176 1.4949 1.9638 2.2528 1.2372 1.7095 2.5566 3.3617 3.9962 4.9256.4112.4468 1.2478-.1585.868-.6516-.6921-.8986-1.3975-1.7868-2.1128-2.6672.6408.741 1.2903 1.4753 1.9573 2.195.4836.5221 1.2194-.2329.7808-.7597-1.8564-2.2283-3.7128-4.4568-5.5689-6.6851-.1774-.2369-.3557-.4733-.5305-.7122.4892.5734.9783 1.1467 1.4675 1.7199l5.7537 6.7437c.4576.5372 1.2084-.2259.7792-.759Z" fill="#D8BFD8"/><path d="M81.8402 32.1624c-.1694-1.2738-.209-2.5908-.2946-3.8729-.1647-2.4726-.1342-4.9537-.2738-7.4263.317-1.6387-1.3563-3.2368-2.9371-3.6908-.0582-.0167-.1111-.0173-.1587-.0077.0059-1.4191-.03-2.8407-.048-4.254-.0142-1.1213-.0331-2.2424-.0566-3.36327-.0224-1.07371.0439-2.19679-.1398-3.25681-.0237-.13655-.1191-.19294-.2233-.19258-.3916-.5592-1.3981-.85843-2.0013-.98256-1.2676-.2605-3.0223-.1171-3.9909.81141-.0737.07062-.0787.17439-.0433.26105-.1241.03422-.2255.13205-.2216.29599.0831 3.62987.0111 7.31167.2062 10.95257-1.4947-.3223-2.9815.701-3.1628 2.1716-.0144.0245-.0255.0524-.0291.0865-.221 2.0894-.1838 4.2073-.2181 6.3057-.0337 2.0604-.2883 4.2597-.0411 6.3059.0185.1526.1726.2608.3135.2689 3.3909 3.3648 9.0485 2.2084 13.0349.6918.0931-.0355.153-.0989.1846-.172.3237-.1578.1357-.6707.1009-.9325ZM77.4278 9.7247c.0242 1.1211.0441 2.2422.0591 3.3633.0283 2.1062-.0163 4.2239.0742 6.3293-.0098.0126-.0211.0229-.0289.0389-.4784.9824-1.0526 1.5452-2.2193 1.6767-1.0118.114-2.4809.0103-2.8567-1.118-.0196-.0589-.0672-.0906-.1183-.0984.2066-4.2956-.1006-8.6564-.2133-12.95823.7187.74277 1.8097 1.03264 2.8612 1.12037.7532.0627 1.7397-.01063 2.3559-.51091.01.72097.0709 1.45023.0861 2.15697Zm-2.911-4.13541c.5821-.01081 3.3263.30536 2.5161 1.46284-.4403.62891-1.7312.50209-2.3869.41345-.9745-.13169-1.8936-.45038-2.5372-1.19784.8103-.31544 1.4866-.66134 2.408-.67845ZM71.6872 17.9435c.043.7063.0954 1.4113.163 2.1135.0177.185.1942.258.3284.213.2515 2.3306 5.206 1.9337 5.7772-.2348.078-.0356.1391-.1082.1456-.2198.0389-.6714.0585-1.3448.0677-2.0191 1.8194.5316 3.5887 2.8446 1.5115 4.2392-1.3032.8748-3.3684 1.0494-4.892 1.0454-1.6453-.0041-3.5718-.3634-4.8244-1.4913-1.7112-1.5414-.4007-3.9284 1.723-3.6461Zm-2.9191 14.347c.281-1.9865.1061-4.112.1283-6.1146.0176-1.5819.0761-3.1745.0398-4.7602.9961 1.5213 3.3785 2.1397 5.0568 2.2651 1.3568.1014 2.7362-.0544 4.0577-.3578 1.0013-.2297 2.0592-.5896 2.7134-1.4019-.0654 1.8959-.0263 3.8021.0815 5.6901.0644 1.1303.1607 2.2579.249 3.3865.0372.4765-.0294 1.2042.1585 1.7261-2.1419.8096-4.3906 1.4621-6.7095 1.4307-2.1194-.0288-4.0488-.704-5.7755-1.864Z" fill="#141414"/></svg>