<svg width="177" height="393" fill="none" xmlns="http://www.w3.org/2000/svg"><path d="M175.371 356.09c-5.097-6.514-10.197-13.028-15.294-19.539 2.561-1.749 3.897-4.942 1.577-8.255-1.822-2.726-3.635-5.456-5.45-8.187 5.417 1.735 11.957-3.564 8.343-9.924-6.024-10.601-11.911-21.273-17.736-31.98 4.769 5.392 9.595 10.738 14.49 16.027 5.495 5.935 14.95-1.667 11.038-8.525-6.325-11.089-12.399-22.309-18.271-33.632 2.838 2.886 5.674 5.772 8.513 8.659 5.698 5.796 14.801-1.563 11.048-8.532-2.527-4.691-5.055-9.383-7.582-14.075 5.229 1.503 11.354-4.835 8.053-10.483-1.56-2.669-3.119-5.341-4.679-8.008 3.932-.639 7.511-4.462 6.021-8.807-3.435-10.021-8.669-30.402-19.18-35.065-3.024-1.34-5.849-1.133-8.374 1.081-.321.281-.639.562-.959.842-2.226-2.501-4.452-5.005-6.675-7.507-5.38-6.051-15.044 1.725-11.06 8.543.894 1.53 1.79 3.061 2.683 4.591-4.364.632-8.15 5.921-5.578 10.698 3.878 7.198 7.754 14.393 11.633 21.591-1.436-1.458-2.87-2.917-4.305-4.378-5.911-6.008-14.252 1.579-11.044 8.53 2.933 6.348 5.935 12.661 9.004 18.939-5.368-6.571-10.675-13.191-15.86-19.912-5.41-7.014-16.2956-1.22-12.13 7.097 2.881 5.749 5.819 11.472 8.757 17.192-5.935-6.95-11.968-13.817-18.1118-20.595-3.4563-3.814-8.6573-1.971-10.8287 1.623-3.9349-4.647-7.9264-9.253-11.9886-13.815-3.105-3.486-7.4573-.628-7.9076 3.002-5.4532-6.873-10.8688-13.839-15.511-21.247 2.1384-.281 4.1731-1.482 5.2529-3.382 1.7211-3.028 2.4308-5.1 1.4712-8.61-.2947-1.08-1.4901-2.586-2.6689-4.038.9148-2.015.9549-4.41-.2852-6.388-3.072-4.904-9.8338-7.597-14.3346-2.572-.712.792-1.2283 1.711-1.5819 2.69l-.132-.083c-4.9582-3.098-12.4084 2.105-10.3101 7.935 1.0563 2.938 2.287 5.756 3.5908 8.524-.8677-.458-1.7494-.892-2.6548-1.296-5.979-2.657-13.58 3.068-9.6121 9.624.5611.928 1.1505 1.834 1.7164 2.759-3.0013 1.945-4.9181 5.983-2.8363 9.643 5.1114 8.99 10.2888 17.946 15.5369 26.862-4.4654-4.824-8.9378-9.638-13.4621-14.41-5.6089-5.917-14.83672 1.621-11.05742 8.541 3.27006 5.987 6.62732 11.92 10.04122 17.818-2.5863 2.112-4.14 6.084-2.6854 9.51 2.4826 5.848 5.102 11.626 7.8416 17.339-.066-.075-.132-.151-.1957-.226-5.1703-5.957-15.45434 1.885-10.9913 8.491 2.2845 3.382 4.5714 6.764 6.856 10.146-.9242 1.777-1.0798 4.042.1108 6.509 6.4152 13.272 13.191 26.337 20.2805 39.223-5.7668-6.592-11.4629-13.247-17.0246-20.027-4.9746-6.065-13.40557 1.659-10.2982 7.953 5.0053 10.136 10.0507 20.249 15.1055 30.359-4.4395-3.929-8.879-7.859-13.3208-11.788-3.60953-3.193-9.27494-.13-8.11734 4.73 1.53247 6.421 4.3074 10.124 9.70174 13.848 1.4806 1.022 2.8952 1.012 4.0292.42 7.436 7.219 14.8862 14.427 22.4071 21.559 4.9911 4.732 11.9344-1.194 9.1618-7.078-2.2374-4.748-4.4654-9.499-6.6957-14.247 9.018 9.824 18.2977 19.413 27.8509 28.749 5.267 5.148 14.4901-1.258 10.9536-7.774 5.6065 2.002 12.762-3.542 8.6078-9.69-.0236-.035-.0495-.073-.0731-.108 3.3879 3.705 6.8254 7.372 10.3503 10.962 5.097 5.192 12.066.097 11.738-5.605 1.068 1.218 2.122 2.445 3.195 3.658 6.121 6.908 15.49-3.033 9.961-9.971-17.722-22.241-35.4471-44.481-53.1695-66.722-5.4627-7.635-10.7981-15.359-15.999-23.175 8.4592 9.732 16.777 19.583 25.0052 29.511 15.7538 22.395 32.5543 44.038 50.8853 64.525 5.236 5.853 15.888-2.076 11.052-8.536-8.812-11.771-17.795-23.406-26.903-34.94 8.16 9.707 16.431 19.326 24.923 28.755 6.158 6.839 15.527-3.052 9.942-9.952-23.638-29.191-47.275-58.385-70.9107-87.576-2.2587-3.103-4.5291-6.199-6.7547-9.329 6.2289 7.512 12.4578 15.022 18.6867 22.531l73.2637 88.342c5.826 7.038 15.386-2.959 9.921-9.942Z" fill="#D8BFD8"/><path d="M174.966 355.828c-2.158-16.688-2.662-33.94-3.751-50.736-2.099-32.391-1.71-64.893-3.487-97.284 4.036-21.467-17.27-42.402-37.4-48.349-.74-.22-1.414-.227-2.02-.102.075-18.59-.382-37.212-.611-55.727-.181-14.6884-.422-29.3747-.721-44.0586-.286-14.0657.559-28.778-1.78-42.6642-.302-1.7889-1.516-2.5276-2.844-2.5229-4.986-7.32545-17.802-11.24542-25.4834-12.87146C80.7281-1.89973 58.3847-.021171 46.0519 12.1423c-.9384.9251-1.0021 2.2845-.5517 3.4197-1.5797.4484-2.8716 1.7298-2.8221 3.8774 1.0586 47.5518.1414 95.7836 2.6264 143.4786-19.0333-4.222-37.96524 9.183-40.27337 28.448-.1839.321-.32532.687-.37011 1.133-2.81503 27.371-2.34117 55.115-2.77733 82.605-.42909 26.991-3.67082 55.802-.52336 82.607.23576 1.999 2.19731 3.417 3.99148 3.523C48.5298 405.312 120.57 390.163 171.33 370.297c1.186-.465 1.948-1.296 2.351-2.254 4.121-2.067 1.728-8.786 1.285-12.215ZM118.781 61.8936c.308 14.6863.561 29.3726.752 44.0594.36 27.59-.208 55.332.945 82.914-.125.165-.269.299-.368.509-6.092 12.87-13.403 20.242-28.2585 21.965-12.8845 1.494-31.5901.134-36.3762-14.646-.2499-.772-.8557-1.187-1.5065-1.289 2.6312-56.272-1.2802-113.3981-2.716-169.7527 9.1524 9.7303 23.0437 13.5276 36.4327 14.6769 9.591.8213 22.1525-.1392 29.9985-6.693.128 9.4448.903 18.9981 1.097 28.2564ZM81.7137 7.71965c7.4124-.1416 42.3553 4.00025 32.0383 19.16325-5.607 8.2388-22.0443 6.5773-30.3927 5.4162-12.4083-1.7251-24.1117-5.9-32.3069-15.6917 10.3171-4.1323 18.9296-8.66355 30.6613-8.88775ZM45.6841 169.559c.5469 9.254 1.2142 18.489 2.0747 27.688.2263 2.424 2.4731 3.38 4.1824 2.79 3.2017 30.531 66.2898 25.332 73.5638-3.076.992-.467 1.77-1.418 1.853-2.879.495-8.795.745-17.617.863-26.451 23.166 6.965 45.695 37.265 19.245 55.534-16.593 11.46-42.89 13.747-62.2914 13.695-20.95-.055-45.4813-4.76-61.4308-19.536-21.78937-20.193-5.102-51.463 21.9403-47.765ZM8.51342 357.506c3.57888-26.024 1.35092-53.868 1.63388-80.101.2239-20.724.9689-41.586.5068-62.359 12.6842 19.928 43.02 28.03 64.3897 29.673 17.2769 1.328 34.8412-.713 51.6682-4.687 12.75-3.009 26.221-7.725 34.551-18.366-.832 24.837-.335 49.808 1.037 74.541.821 14.806 2.047 29.578 3.171 44.363.474 6.242-.374 15.774 2.019 22.611-27.274 10.606-55.907 19.154-85.4345 18.744-26.988-.378-51.5547-9.223-73.54208-24.419Z" fill="#141414"/></svg>