<svg width="694" height="112" fill="none" xmlns="http://www.w3.org/2000/svg"><path d="M9.477 85H.209658V12.473H13.2041l44.0702 49.8119V12.473h9.217V85H53.4969L9.477 35.2384V85Zm129.793 0h-17.024v-6.9505c-2.014 2.7533-4.449 4.8016-7.303 6.1446-2.82 1.3096-5.926 1.9643-9.317 1.9643-4.433 0-8.3946-.789-11.8867-2.3672-3.492-1.5781-6.4468-3.7271-8.8644-6.4468-2.4176-2.7534-4.2643-5.9768-5.5403-9.6703-1.2759-3.6935-1.9139-7.6556-1.9139-11.8864 0-4.2307.638-8.1928 1.9139-11.8864 1.276-3.6935 3.1227-6.9001 5.5403-9.6199 2.4176-2.7533 5.3724-4.919 8.8644-6.4972 3.4921-1.5781 7.4537-2.3672 11.8867-2.3672 2.249 0 4.382.3358 6.396 1.0073 2.048.6716 3.912 1.6285 5.591 2.8709 1.712 1.2088 3.206 2.6862 4.482 4.4322 1.31 1.7125 2.334 3.6264 3.073 5.7417l7.555-12.6418h6.547V85Zm-17.124-29.2123c0-1.511-.084-3.1059-.252-4.7847-.134-1.6789-.386-3.341-.756-4.9863-.369-1.6453-.889-3.2066-1.561-4.684-.638-1.511-1.477-2.8373-2.518-3.9789-1.008-1.1752-2.233-2.0986-3.677-2.7702-1.444-.6715-3.123-1.0073-5.037-1.0073-1.913 0-3.576.3526-4.986 1.0577-1.41.6715-2.619 1.5949-3.6261 2.7701-1.0073 1.1417-1.8468 2.468-2.5183 3.9789-.638 1.511-1.1417 3.0892-1.511 4.7344-.3694 1.6453-.638 3.3074-.8059 4.9863-.1343 1.6453-.2014 3.2066-.2014 4.684 0 1.4774.0671 3.0556.2014 4.7344.1679 1.6789.4365 3.341.8059 4.9863.3693 1.6452.873 3.2234 1.511 4.7344.6715 1.5109 1.511 2.854 2.5183 4.0292 1.0071 1.1417 2.2161 2.065 3.6261 2.7702 1.41.6715 3.073 1.0073 4.986 1.0073 1.746 0 3.291-.3526 4.634-1.0577 1.377-.7387 2.569-1.7124 3.576-2.9212 1.041-1.2088 1.914-2.5855 2.619-4.13.705-1.5446 1.276-3.1395 1.713-4.7848.436-1.6453.755-3.2738.957-4.8855.201-1.6453.302-3.1395.302-4.4826Zm49.258-43.0125c0 1.2759-.252 2.4847-.756 3.6263-.47 1.1416-1.125 2.1322-1.964 2.9716-.84.8394-1.83 1.511-2.972 2.0146-1.141.4701-2.35.7052-3.626.7052-1.276 0-2.485-.2351-3.626-.7052-1.108-.5036-2.082-1.1752-2.922-2.0146-.839-.8394-1.511-1.83-2.014-2.9716-.47-1.1416-.705-2.3504-.705-3.6263 0-1.276.235-2.468.705-3.57603.503-1.14163 1.175-2.13216 2.014-2.97159.84-.83944 1.814-1.49419 2.922-1.96428 1.141-.50366 2.35-.75549 3.626-.75549 1.276 0 2.485.25183 3.626.75549 1.142.47009 2.132 1.12484 2.972 1.96428.839.83943 1.494 1.82996 1.964 2.97159.504 1.10803.756 2.30003.756 3.57603ZM170.648 85h-17.074V26.8776h17.074V85Zm31.328 0h-17.024V.0325591h6.548L201.976 17.711V85Zm64.267-18.5851c0 2.5519-.369 4.8184-1.108 6.7995-.739 1.981-1.746 3.7103-3.022 5.1877-1.276 1.4438-2.787 2.6694-4.533 3.6767-1.746.9737-3.626 1.7628-5.641 2.3672-1.981.6044-4.063 1.0409-6.245 1.3095-2.183.2686-4.349.4029-6.498.4029-2.887 0-5.439-.1847-7.655-.554-2.216-.3694-4.332-.957-6.346-1.7628-2.015-.8395-4.03-1.9139-6.044-3.2234-1.981-1.3096-4.198-2.9045-6.649-4.7848l9.922-8.1089c.907 1.7124 2.099 3.2738 3.576 4.684 1.511 1.3767 3.073 2.5687 4.684 3.576 1.612 1.0073 3.174 1.7796 4.685 2.3168 1.51.5373 2.736.8059 3.676.8059.773 0 1.646-.0168 2.619-.0504.974-.0671 1.965-.1679 2.972-.3022 1.007-.1679 1.998-.4029 2.971-.7051.974-.3022 1.83-.7051 2.569-1.2088.772-.5372 1.377-1.192 1.813-1.9643.47-.8058.705-1.7628.705-2.8708 0-1.1417-.302-2.1322-.906-2.9716-.571-.873-1.326-1.6285-2.267-2.2665-.94-.638-2.014-1.1752-3.223-1.6117-1.209-.4365-2.434-.8226-3.677-1.1584-1.209-.3358-2.384-.6212-3.525-.8562-1.142-.2687-2.133-.5205-2.972-.7555-1.545-.4365-3.173-.873-4.886-1.3095-1.712-.4701-3.408-.9906-5.086-1.5614-1.679-.6044-3.291-1.3095-4.836-2.1154-1.511-.8058-2.854-1.7628-4.029-2.8708-1.142-1.1417-2.065-2.468-2.77-3.9789-.672-1.5446-1.007-3.341-1.007-5.3892 0-3.7607.738-6.9001 2.216-9.4184 1.511-2.5519 3.492-4.5834 5.943-6.0943 2.451-1.5446 5.238-2.6359 8.361-3.2738 3.122-.638 6.295-.957 9.519-.957 2.216 0 4.55.2351 7.001.7051 2.451.4366 4.835 1.1081 7.152 2.0147 2.317.873 4.482 1.9475 6.497 3.2234 2.015 1.2759 3.693 2.7366 5.037 4.3819l-9.923 8.1592c-.738-2.0146-1.712-3.7438-2.921-5.1877-1.175-1.4438-2.468-2.619-3.878-3.5256-1.377-.9401-2.804-1.6285-4.281-2.065-1.444-.4365-2.787-.6547-4.029-.6547-1.209 0-2.569.0503-4.08.1511-1.511.1007-2.938.3861-4.281.8562-1.31.4701-2.434 1.192-3.375 2.1657-.906.9402-1.36 2.2497-1.36 3.9286 0 1.2088.269 2.2496.806 3.1227.571.8394 1.31 1.5781 2.216 2.2161.907.6044 1.931 1.1248 3.073 1.5613 1.175.4029 2.367.7723 3.576 1.1081 1.209.3022 2.384.5708 3.525.8058 1.142.2351 2.166.4869 3.073.7555 1.544.4365 3.173.8898 4.885 1.3599 1.746.4365 3.459.9569 5.138 1.5613 1.678.5709 3.29 1.2592 4.835 2.065 1.578.7723 2.954 1.7293 4.13 2.8709 1.175 1.1416 2.115 2.4847 2.82 4.0293.705 1.511 1.058 3.3074 1.058 5.3891Z" fill="#141414"/><path d="M374.127 65.3069c0 2.0482-.336 3.9621-1.007 5.7417-.672 1.7796-1.595 3.4081-2.771 4.8855-1.175 1.4438-2.551 2.7366-4.13 3.8782-1.544 1.1416-3.223 2.0986-5.036 2.8709-1.78.7722-3.627 1.3598-5.54 1.7628-1.914.3693-3.795.554-5.641.554h-42.66V12.473h38.983c1.712 0 3.509.1343 5.389.4029 1.88.235 3.71.6212 5.49 1.1584 1.813.5372 3.525 1.2424 5.137 2.1154 1.645.873 3.073 1.9475 4.281 3.2234 1.243 1.2424 2.216 2.6862 2.922 4.3315.738 1.6453 1.108 3.5256 1.108 5.641 0 2.0146-.403 3.8446-1.209 5.4899-.806 1.6453-1.897 3.1227-3.274 4.4322-1.343 1.2759-2.904 2.4175-4.684 3.4249-1.746.9737-3.593 1.8299-5.54 2.5686 2.451.6716 4.768 1.5614 6.95 2.6694 2.216 1.1081 4.147 2.468 5.792 4.0797 1.679 1.6117 3.005 3.5256 3.979 5.7417.974 2.1825 1.461 4.7008 1.461 7.5549Zm-23.773-34.1985c0-4.0965-1.091-7.0848-3.274-8.9652-2.149-1.8803-5.221-2.8205-9.217-2.8205h-10.526v23.521h8.814c1.813 0 3.576-.2183 5.288-.6548 1.713-.4701 3.224-1.1752 4.533-2.1154 1.343-.9737 2.401-2.1993 3.173-3.6767.806-1.4774 1.209-3.2402 1.209-5.2884Zm3.526 32.9393c0-1.981-.252-3.8278-.756-5.5402-.503-1.746-1.276-3.2402-2.317-4.4826-1.041-1.2759-2.35-2.2665-3.928-2.9716-1.545-.7387-3.375-1.108-5.49-1.108h-14.052v28.0035h12.289c2.048 0 3.945-.3358 5.691-1.0074 1.747-.6715 3.257-1.6117 4.533-2.8205 1.276-1.2087 2.267-2.6694 2.972-4.3818.705-1.7124 1.058-3.6096 1.058-5.6914Zm44.423-6.6483c2.081.4701 4.163.8395 6.245 1.1081 2.082.2686 4.18.4029 6.296.4029 2.216 0 4.264-.2015 6.144-.6044 1.914-.4365 3.559-1.1416 4.936-2.1154 1.41-1.0073 2.518-2.3336 3.324-3.9789.806-1.6453 1.209-3.6935 1.209-6.1446 0-1.9811-.269-3.7943-.806-5.4395-.537-1.6453-1.343-3.0556-2.417-4.2308-1.041-1.1752-2.334-2.0818-3.879-2.7198-1.544-.6715-3.34-1.0073-5.389-1.0073-1.914 0-3.643.3526-5.187 1.0577-1.511.7051-2.854 1.6621-4.03 2.8709-1.141 1.1752-2.132 2.5519-2.971 4.13-.806 1.5781-1.478 3.2234-2.015 4.9359-.537 1.7124-.923 3.4416-1.158 5.1877-.235 1.746-.353 3.3913-.353 4.9358v.8059c0 .2686.017.5372.051.8058Zm41.954-11.4834c0 2.384-.386 4.5161-1.158 6.3965-.772 1.8467-1.83 3.4752-3.173 4.8855-1.31 1.4102-2.837 2.6022-4.583 3.576-1.746.9737-3.61 1.7796-5.591 2.4175-1.981.6044-4.029 1.0409-6.145 1.3095-2.081.2687-4.113.403-6.094.403-2.518 0-5.003-.1679-7.454-.5037-2.451-.3693-4.869-.9402-7.253-1.7124.37 2.2161.957 4.3314 1.763 6.3461.806 1.981 1.88 3.7271 3.223 5.238 1.343 1.4774 2.989 2.6527 4.936 3.5257 1.981.873 4.315 1.3095 7.001 1.3095 1.78 0 3.475-.2686 5.087-.8059 1.612-.5372 3.089-1.2927 4.432-2.2664 1.343-.9738 2.519-2.1322 3.526-3.4753 1.041-1.3431 1.88-2.8373 2.518-4.4826l7.354 2.7198c-1.108 2.6526-2.636 4.9526-4.584 6.9001-1.914 1.9139-4.096 3.5089-6.547 4.7848-2.418 1.2424-5.003 2.1657-7.757 2.7701-2.719.6044-5.422.9066-8.108.9066-4.433 0-8.529-.7387-12.29-2.2161-3.76-1.511-7.001-3.6095-9.72-6.2957-2.72-2.6862-4.852-5.8929-6.397-9.6199-1.544-3.7271-2.317-7.8068-2.317-12.239 0-4.4322.773-8.5118 2.317-12.2389 1.545-3.7271 3.677-6.9337 6.397-9.6199 2.719-2.6862 5.96-4.768 9.72-6.2454 3.761-1.511 7.857-2.2665 12.29-2.2665 2.148 0 4.348.1511 6.597.4533 2.25.3022 4.433.7891 6.548 1.4606 2.115.638 4.113 1.4774 5.994 2.5183 1.88 1.0409 3.508 2.3337 4.885 3.8782 1.41 1.511 2.518 3.2738 3.324 5.2884.84 2.0147 1.259 4.3147 1.259 6.9002ZM509.46 85h-17.023v-6.9505c-2.015 2.7533-4.449 4.8016-7.303 6.1446-2.821 1.3096-5.927 1.9643-9.318 1.9643-4.432 0-8.395-.789-11.887-2.3672-3.492-1.5781-6.446-3.7271-8.864-6.4468-2.418-2.7534-4.264-5.9768-5.54-9.6703-1.276-3.6935-1.914-7.6556-1.914-11.8864 0-4.2307.638-8.1928 1.914-11.8864 1.276-3.6935 3.122-6.9001 5.54-9.6199 2.418-2.7533 5.372-4.919 8.864-6.4972 3.492-1.5781 7.455-2.3672 11.887-2.3672 2.249 0 4.382.3358 6.396 1.0073 2.048.6716 3.912 1.6285 5.591 2.8709 1.712 1.2088 3.207 2.6862 4.482 4.4322 1.31 1.7125 2.334 3.6264 3.073 5.7417l7.555-12.6418h6.547V85Zm-17.124-29.2123c0-1.511-.084-3.1059-.252-4.7847-.134-1.6789-.386-3.341-.755-4.9863-.37-1.6453-.89-3.2066-1.562-4.684-.638-1.511-1.477-2.8373-2.518-3.9789-1.007-1.1752-2.233-2.0986-3.677-2.7702-1.444-.6715-3.123-1.0073-5.036-1.0073-1.914 0-3.576.3526-4.987 1.0577-1.41.6715-2.619 1.5949-3.626 2.7701-1.007 1.1417-1.847 2.468-2.518 3.9789-.638 1.511-1.142 3.0892-1.511 4.7344-.37 1.6453-.638 3.3074-.806 4.9863-.134 1.6453-.202 3.2066-.202 4.684 0 1.4774.068 3.0556.202 4.7344.168 1.6789.436 3.341.806 4.9863.369 1.6452.873 3.2234 1.511 4.7344.671 1.5109 1.511 2.854 2.518 4.0292 1.007 1.1417 2.216 2.065 3.626 2.7702 1.411.6715 3.073 1.0073 4.987 1.0073 1.746 0 3.29-.3526 4.633-1.0577 1.377-.7387 2.569-1.7124 3.576-2.9212 1.041-1.2088 1.914-2.5855 2.619-4.13.705-1.5446 1.276-3.1395 1.713-4.7848.436-1.6453.755-3.2738.957-4.8855.201-1.6453.302-3.1395.302-4.4826Zm28.406 4.3315c0-2.6526.219-5.406.655-8.26.47-2.8541 1.125-5.7082 1.964-8.5622.873-2.8541 1.914-5.6746 3.123-8.4615 1.209-2.787 2.569-5.4564 4.08-8.0082h12.44c-.839 2.5183-1.595 5.1541-2.266 7.9074-.638 2.7198-1.192 5.4563-1.663 8.2097-.436 2.7198-.789 5.3892-1.057 8.0082-.235 2.619-.353 5.0534-.353 7.3031 0 1.3095.051 2.7197.151 4.2307.135 1.4774.353 2.9716.655 4.4826.302 1.4774.722 2.9044 1.259 4.2811.571 1.3767 1.293 2.6022 2.166 3.6767.873 1.0409 1.931 1.8803 3.173 2.5183 1.276.6044 2.77.9066 4.483.9066 1.678 0 3.173-.3694 4.482-1.1081 1.343-.7722 2.518-1.7628 3.526-2.9716 1.007-1.2423 1.863-2.6526 2.568-4.2307.706-1.5781 1.276-3.1898 1.713-4.8351.47-1.6789.806-3.3074 1.007-4.8855.235-1.6118.353-3.0556.353-4.3315V26.8273h17.024V85h-6.548l-7.807-13.5485c-.974 2.2497-2.166 4.2979-3.576 6.1447-1.376 1.8132-2.955 3.3745-4.734 4.684-1.78 1.3096-3.761 2.3169-5.943 3.022-2.149.7051-4.483 1.0577-7.001 1.0577-4.03 0-7.538-.6548-10.527-1.9643-2.988-1.3095-5.473-3.1227-7.454-5.4395-1.981-2.3169-3.458-5.0702-4.432-8.26-.974-3.2235-1.461-6.7491-1.461-10.5769ZM616.337 85h-17.074V33.5763h-10.577v-6.749h10.577V5.42172h17.074V26.8273h17.628v6.749h-17.628V85Zm77.614-58.1727-21.154 51.1718c-2.417 5.8425-5.12 11.6178-8.109 17.3259-2.955 5.742-6.161 11.248-9.62 16.52l-6.648-4.029c.839-1.511 1.83-3.257 2.972-5.238 1.141-1.981 2.266-4.0295 3.374-6.1449s2.132-4.214 3.073-6.2958c.94-2.0482 1.662-3.9285 2.165-5.641l-25.435-57.669h17.024l17.276 39.3358 13.296-39.3358h11.786Z" fill="#694C69"/></svg>