<svg width="41" height="40" fill="none" xmlns="http://www.w3.org/2000/svg"><g opacity=".3" fill="#D8BFD8"><path d="M8.26562 4.00006c0 2.20914-1.79086 4-4 4-2.20913 0-3.999995-1.79086-3.999995-4S2.05649.000061 4.26562.000061c2.20914 0 4 1.790859 4 3.999999ZM24.2656 4c0 2.20914-1.7908 4-4 4-2.2091 0-4-1.79086-4-4s1.7909-4 4-4c2.2092 0 4 1.79086 4 4ZM40.2656 4c0 2.20914-1.7908 4-4 4-2.2091 0-4-1.79086-4-4s1.7909-4 4-4c2.2092 0 4 1.79086 4 4ZM8.26562 20c0 2.2091-1.79086 4-4 4-2.20913 0-3.999995-1.7909-3.999995-4 0-2.2091 1.790865-4 3.999995-4 2.20914 0 4 1.7909 4 4ZM24.2656 20c0 2.2091-1.7908 4-4 4-2.2091 0-4-1.7909-4-4 0-2.2091 1.7909-4 4-4 2.2092 0 4 1.7909 4 4ZM40.2656 20c0 2.2091-1.7908 4-4 4-2.2091 0-4-1.7909-4-4 0-2.2091 1.7909-4 4-4 2.2092 0 4 1.7909 4 4ZM8.26562 36c0 2.2091-1.79086 4-4 4-2.20913 0-3.999995-1.7909-3.999995-4 0-2.2091 1.790865-4 3.999995-4 2.20914 0 4 1.7909 4 4ZM24.2656 36c0 2.2091-1.7908 4-4 4-2.2091 0-4-1.7909-4-4 0-2.2091 1.7909-4 4-4 2.2092 0 4 1.7909 4 4ZM40.2656 36c0 2.2091-1.7908 4-4 4-2.2091 0-4-1.7909-4-4 0-2.2091 1.7909-4 4-4 2.2092 0 4 1.7909 4 4Z"/></g></svg>