<svg width="1440" height="703" fill="none" xmlns="http://www.w3.org/2000/svg"><g clip-path="url(#a)"><path d="M1440 0H0v703h1440V0Z" fill="#694C69"/><mask id="b" style="mask-type:luminance" maskUnits="userSpaceOnUse" x="0" y="0" width="1440" height="703"><path d="M1440 0H0v703h1440V0Z" fill="#fff"/></mask><g mask="url(#b)"><path d="M-21.3485 285.12c26.4634-.77 52.0359-5.516 77.6948-9.647 33.0105-5.313 66.1137-8.381 99.8837-5.103 19.485.753 48.793 4.874 58.409 12.086 6.843 5.133 16.373 11.442 6.096 32.796-7.448 15.473-18.764 29.945-27.641 44.903-3.584 6.041-8.38 11.915-7.478 18.941-2.928 15.864 1.74 21.535 22.729 26.31 25.499 5.801 51.921 8.852 77.823 13.474 38.266 6.829 74.181 18.285 110.435 29.169 19.805 5.946 39.99 11.336 61.945 11.241 17.744-.078 24-5.737 19.325-18.422-7.774-21.09-23.73-37.345-52.007-46.309-16.889-5.354-34.702-9.201-50.137-16.969-36.26-18.249-40.305-45.716-9.933-68.894 12.686-9.682 27.652-17.113 43.533-23.6 10.64-4.347 21.279-8.766 32.338-12.484 36.092-12.135 55.573-32.755 61.049-61.297 2.739-14.285 6.407-28.536 13.766-42.059 15.082-27.712 42.054-44.52 83.324-47.309 20.379-1.378 39.815 2.84 58.883 7.674 24.875 6.306 49.572 12.9 75.932 15.478 27.312 2.67 54.553 2.066 81.778.085 39.921-2.905 79.82-6.005 119.672-9.385 39.533-3.352 78.959-7.372 118.499-10.676 23.84-1.992 47.73-4.561 71.85-2.282 3.9.368 7.89.822 11.55 1.794 11.75 3.11 15.34 8.38 11.04 16.965-7.42 14.843-21.12 27.192-31.19 41.003-26.91 36.938-47.5 75.228-48.29 117.88-.01.483 0 .965 0 1.447.23 24.795 11.8 32.746 45.78 32.205 41.75-.665 70.53-14.027 84.94-43.577 14.04-28.786 20.86-58.699 28.43-88.535 4.86-19.196 9.08-38.474 15-57.533 4.51-14.56 13.58-27.394 28.05-37.583 53.18-37.4646 107.38-74.1105 167.48-105.72305 6.98-3.66685 14.3-6.90908 22.67-8.64831V7.01042c-9.97 2.11603-18.54 6.17938-26.91 10.47888-34.21 17.5793-63.54 39.025-91.2 61.7825-24.91 20.5037-45.27 43.1392-60.47 68.3092-20.75 34.363-33.02 70.58-45.07 106.892-8.06 24.333-15.58 48.815-31.35 71.382-12.01 17.187-30.78 27.55-56.86 29.985-34.06 3.181-66.48 9.57-96.03 22.838-7.33 3.294-11.54 1.648-13.33-4.665-1.94-6.88-2.14-13.893-1.78-20.895 2.02-38.868 9.65-77.144 22.22-114.94 7.07-21.271 16.43-42.167 19.81-64.063 2.48-16.05-5.63-25.279-26.82-29.757-7.6-1.607-15.38-2.481-23.36-2.665-34.325-.798-68.372 1.699-102.479 4.057-35.029 2.421-69.896 5.856-104.886 8.421-24.854 1.821-49.747 3.419-74.886 2.664-32.966-.991-64.237-7.283-95.435-14.262-20.27-4.535-40.831-8.102-62.174-4.844-35.184 5.371-53.157 23.285-62.555 47.042-5.603 14.163-7.726 28.836-9.813 43.412-4.416 30.826-25.335 51.946-65.317 62.941-14.478 3.981-28.675 8.611-41.737 14.82-13.549 6.44-24.99 14.23-29.946 25.964-4.929 11.674 1.091 22.549 15.875 28.1 20.39 7.655 39.868 4.759 57.963-4.004 11.784-5.707 22.477-12.608 33.895-18.738 15.028-8.069 31.594-13.087 50.663-11.812 31.05 2.077 61.17 17.786 45.859 50.052-3.44 7.252-7.937 14.343-13.102 21.031-14.845 19.22-16.406 38.297-.885 57.69 1.98 2.473 3.414 5.24 4.576 7.99 3.097 7.327 1.891 14.375-3.923 20.778-9.331 10.278-22.093 15.986-39.41 16.588-30.777 1.07-58.049-7.313-85.327-15.958-36.32-11.513-69.759-27.232-105.976-38.885-52.258-16.814-106.007-22.853-161.583-10.214-21.036 4.784-41.198 11.589-62.087 16.765-18.8643 4.674-27.7558-.733-26.7555-15.285.1152-1.68.5376-3.349.841-5.021 3.456-18.945 12.3285-36.991 17.3105-55.684 3.481-13.063 5.549-26.143 3.111-39.499-3.243-17.765-16.6391-29.276-39.6004-32.692-11.3031-1.682-22.8115-2.322-34.4218-1.606-20.016 1.233-40.0531 2.288-60.0825 3.421.071-6.603.1401-13.204.2092-19.805Z" fill="#694C69"/><path d="M-21.5539 304.919c20.02753-1.129 40.0646-2.185 60.0806-3.418 11.6103-.715 23.1188-.076 34.4218 1.606 22.9632 3.417 36.3595 14.927 39.6005 32.692 2.438 13.356.37 26.436-3.111 39.499-4.982 18.693-13.8546 36.739-17.3106 55.685-.3053 1.671-.7258 3.34-.841 5.02-1.0003 14.551 7.8912 19.959 26.7556 15.285 20.887-5.175 41.051-11.982 62.087-16.765 55.574-12.639 109.323-6.6 161.583 10.215 36.217 11.652 69.656 27.373 105.976 38.884 27.276 8.645 54.548 17.028 85.327 15.958 17.317-.602 30.079-6.31 39.41-16.588 5.814-6.403 7.02-13.451 3.923-20.778-1.162-2.75-2.596-5.517-4.576-7.99-15.521-19.393-13.96-38.468.885-57.69 5.165-6.687 9.66-13.779 13.102-21.031 15.312-32.267-14.807-47.977-45.859-50.052-19.069-1.275-35.635 3.744-50.663 11.812-11.418 6.13-22.111 13.029-33.896 18.738-18.094 8.763-37.572 11.66-57.962 4.004-14.782-5.551-20.804-16.426-15.875-28.1 4.956-11.735 16.397-19.524 29.946-25.964 13.064-6.208 27.259-10.838 41.737-14.82 39.982-10.995 60.901-32.116 65.317-62.941 2.087-14.576 4.21-29.248 9.813-43.412 9.398-23.757 27.371-41.671 62.555-47.042 21.343-3.258 41.904.31 62.174 4.844 31.198 6.981 62.469 13.273 95.435 14.262 25.139.755 50.032-.843 74.886-2.664 34.992-2.563 69.857-5.999 104.886-8.421 34.107-2.357 68.154-4.854 102.487-4.057 7.97.185 15.75 1.06 23.35 2.665 21.19 4.48 29.3 13.708 26.82 29.757-3.38 21.896-12.74 42.792-19.81 64.063-12.57 37.796-20.2 76.072-22.21 114.941-.37 7.001-.17 14.015 1.78 20.894 1.78 6.313 5.99 7.958 13.33 4.665 29.54-13.268 61.96-19.657 96.02-22.837 26.08-2.436 44.85-12.799 56.86-29.986 15.77-22.566 23.29-47.049 31.36-71.381 12.04-36.313 24.31-72.53 45.06-106.893 15.2-25.17 35.56-47.8054 60.47-68.3091 27.66-22.7561 57-44.2018 91.2-61.7824 8.37-4.2996 16.94-8.3629 26.91-10.47893V21.4823c-10.32.1603-17.61 5.0237-25.08 9.1545-47.24 26.1249-83.51 59.2531-113.39 96.3122-35.57 44.139-54.96 92.653-71.32 142.012-8.41 25.377-15.94 50.997-31.38 74.831-10.94 16.905-27.44 28.704-53.58 31.794-7.15.845-14.34 1.547-21.54 2.045-45.41 3.138-70.52 18.701-81.95 51.082-4.71 13.34-6.07 27.021-7.33 40.714-1.48 15.86-1.59 32.46-16.01 45.393-23.76 21.298-54.434 36.484-89.433 45.967-24.682 6.689-41.781-1.96-45.844-21.087-2.492-11.736 2.031-22.919 7.626-33.754 11.58-22.423 29.783-42.251 46.808-62.496 27.216-32.365 49.193-66.243 58.393-103.978 8.28-33.996 16.46-68.006 24.61-102.02 3.69-15.38 8.09-30.746 7.7-46.44-.5-20.066-12.54-30.967-38.32-34.663-17.791-2.551-35.831-3.508-54.044-2.486-20.657 1.16-41.359 1.724-61.96 3.591-32.567 2.952-65.181 5.673-97.826 8.111-29.186 2.181-58.349 2.799-87.641-.225-24.447-2.524-48.08-7.425-72.023-11.427-51.431-8.596-83.696 6.052-94.855 43.969-6.156 20.918-4.428 42.2-2.623 63.366 1.202 14.09 11.295 24.295 27.5 31.637 11.201 5.076 22.395 10.202 33.103 15.805 20.728 10.847 31.534 25.626 30.758 44.493-.52 12.662-4.913 24.831-10.495 36.688-8.142 17.291-7.63 33.338 7.92 48.679 10.518 10.376 10.297 22.023 3.213 33.682-14.339 23.598-62.053 54.309-117.894 45.117-27.237-4.484-52.303-12.474-76.883-21.73-34.744-13.083-66.716-29.763-102.151-41.942-36.914-12.686-75.349-18.005-115.809-12.353-33.896 4.735-63.493 16.589-91.231 31.057-17.422 9.087-34.0107 19.041-51.5921 27.953-14.2387 7.217-23.328 3.856-26.0448-8.775-1.5936-7.414-1.7069-14.825-.8659-22.344 2.0217-18.075 7.8259-35.571 13.8298-53.071 5.9212-17.258 12.7622-34.449 12.5203-52.457-.3264-24.27-16.0915-36.694-48.9159-39.946-16.4621-1.631-32.90685-.826-49.3632-1.082-.0077-5.914-.0134-11.826-.0211-17.74ZM1032.05 446.748c0-7.944.67-15.928-.28-23.81-.47-3.922 1.55-9.727-5.37-11.443-7.32-1.816-11 3.593-14.87 6.797-27.979 23.206-51.645 48.631-70.878 76.194-6.923 9.922-11.908 20.422-11.299 31.821.62 11.606 11.125 17.838 25.891 13.856 35.983-9.703 63.446-26.15 73.736-54.643 4.59-12.726 3.99-25.773 3.07-38.772Z" fill="#fff"/><path d="M1461.88 64.9067v17.3698c-9.2 1.6253-15.14 6.6349-21.26 11.2859-36.91 28.0656-65.51 60.2656-87.92 95.4756-36.73 57.698-51.92 119.402-63.05 181.871-3.83 21.489-5.88 43.214-13.99 64.183-8.11 20.958-21.91 28.416-51.7 28.21-9.87-.067-19.73-.877-29.6-1.181-6.58-.202-13.21-.516-19.73-.073-20.03 1.361-30.99 8.989-34.35 23.535-1.44 6.227-1.03 12.487-.04 18.744 5.96 37.599 30.96 67.436 68.96 92.347 28.95 18.971 58.24 37.836 80.41 61.548 15.49 16.564 27.86 33.998 23.89 55.145h-55.39c-.21-.694-.2-1.491-.67-2.066-32.96-39.516-67.59-78.247-106.63-114.689-20.83-19.443-48.44-30.286-83.49-27.986-20.02 1.313-38.01 7.279-55.76 13.63-20.045 7.169-39.36 15.499-60.895 20.273-38.304 8.491-69.105-1.266-86.701-27.639-14.374-21.542-14.362-44.126-8.239-67.009 6.776-25.316 24.023-47.317 42.56-68.679 38.335-44.173 63.62-91.734 72.241-143.817 3.216-19.433 5.543-38.919-1.02-58.252-6.296-18.543-22.702-28.62-48.722-30.735-22.034-1.791-43.484.758-64.581 4.758-24.566 4.657-49.158 9.644-70.545 20.228-13.866 6.861-17.182 14.059-11.934 25.602 3.53 7.767 7.941 15.33 12.245 22.895 30.246 53.17 25.834 105.054-11.554 155.401-23.95 32.251-56.946 59.603-90.536 86.53-20.995 16.83-43.981 32.037-71.472 43.021-42.822 17.106-85.565 20.811-128.903-.01-27.519-13.222-55.956-25.429-83.338-38.841-26.254-12.859-51.041-27.3-78.712-38.637-39.921-16.355-80.079-16.772-120.553-1.382-44.429 16.894-77.157 42.27-100.04 74.63-17.1758 24.292-27.0024 50.442-35.6347 76.858-8.546 26.154-17.2071 52.26-35.6621 75.913h-51.4368c.1286-5.903.2553-11.804.384-17.705 5.3625 1.529 9.2102 4.585 13.42846 7.236 13.2192 8.308 21.50404 7.631 31.87584-2.828 11.0342-11.128 16.5389-24.018 21.4982-37.023 8.6535-22.685 13.9642-45.984 23.8138-68.468 20.5056-46.804 55.7263-85.442 114.0863-111.432 48.227-21.477 97.181-23.567 146.629-2.382 13.34 5.716 26.29 11.957 39.06 18.343 39.199 19.599 78.895 38.502 122.421 52.771 47.184 15.469 92.391 12.338 133.907-9.241 61.626-32.033 106.704-74.244 134.859-125.643 12.184-22.248 14.014-45.392 5.56-68.851-13.82-38.35-36.035-72.478-84.397-94.371-10.002-4.527-19.229-10.239-26.347-17.33-8.256-8.225-5.295-15.983 7.577-19.636 4.873-1.382 10.051-2.524 15.219-2.967 50.028-4.296 99.956-8.991 149.488-15.859 35.541-4.928 71.067-10.171 107.721-7.348 31.101 2.396 49.89 15.252 54.406 37.869 4.834 24.22.128 48.091-4.797 71.896-10.786 52.154-36.282 100.277-74.665 144.922-16.297 18.956-31.574 38.405-40.131 60.213-9.096 23.175-10.449 46.03 5.214 68.084 12.757 17.962 34.916 25.788 62.337 22.614 23.278-2.695 43.102-11.477 63.425-19.31 22.76-8.772 45.5-17.562 71.3-20.565 9.74-1.133 19.61-1.669 29.42-2.459 16.6-1.337 20.78-4.547 20.53-16.605-.11-5.282-.78-10.591-1.8-15.826-3.02-15.521-5.91-31.019-4.72-46.779 1.74-23.148 19.1-36.022 50.55-36.757 12.18-.284 24.39.216 36.58.239 25.86.048 44.09-8.342 53.61-26.208 1.43-2.691 2.89-5.383 4.08-8.134 10.53-24.173 15.1-49.28 21.5-74.093 11.67-45.225 25-90.113 49.6-132.733 26.28-45.532 61.6-86.767 109.53-121.8865 5.98-4.3811 11.88-9.146 21-10.2048Z" fill="#fff"/><path d="M1461.88 64.9066c-9.12 1.0587-15.02 5.825-21.01 10.209-47.93 35.1204-83.24 76.3544-109.53 121.8864-24.6 42.618-37.93 87.508-49.6 132.733-6.4 24.813-10.97 49.92-21.5 74.093-1.19 2.749-2.64 5.443-4.08 8.134-9.52 17.866-27.75 26.256-53.61 26.208-12.19-.022-24.4-.523-36.58-.239-31.45.735-48.8 13.609-50.55 36.757-1.19 15.761 1.7 31.258 4.72 46.779 1.02 5.235 1.7 10.544 1.8 15.826.25 12.058-3.92 15.268-20.52 16.605-9.82.79-19.69 1.326-29.43 2.459-25.8 3.002-48.53 11.794-71.3 20.566-20.321 7.832-40.145 16.614-63.423 19.31-27.421 3.174-49.58-4.651-62.336-22.614-15.664-22.054-14.31-44.91-5.215-68.085 8.557-21.808 23.835-41.257 40.132-60.213 38.382-44.645 63.878-92.768 74.665-144.922 4.925-23.806 9.63-47.676 4.796-71.896-4.514-22.617-23.305-35.473-54.405-37.869-36.657-2.823-72.181 2.418-107.722 7.348-49.532 6.868-99.46 11.563-149.487 15.859-5.169.445-10.345 1.585-15.22 2.967-12.87 3.651-15.832 11.41-7.576 19.636 7.117 7.091 16.345 12.803 26.346 17.331 48.363 21.892 70.577 56.019 84.397 94.37 8.454 23.459 6.624 46.604-5.56 68.851-28.153 51.399-73.233 93.61-134.859 125.643-41.516 21.579-86.723 24.71-133.907 9.241-43.526-14.269-83.222-33.171-122.421-52.771-12.77-6.385-25.72-12.626-39.06-18.343-49.45-21.185-98.402-19.096-146.629 2.382-58.36 25.99-93.5804 64.628-114.086 111.433-9.8496 22.484-15.1603 45.782-23.8137 68.468-4.9594 13.004-10.464 25.895-21.4983 37.022-10.3718 10.46-18.65663 11.136-31.87583 2.828-4.21827-2.651-8.06397-5.709-13.43037-7.231-.0019-48.589-.0019-97.182-.0019-145.773 2.4019-3.242 2.8531-6.846 3.6825-10.393 6.5299-27.911 12.36289-55.904 16.853773-84.024 2.655357-16.634 7.326717-33.291 3.023997-50.162-2.636159-10.337-7.4304-19.593-23.57947-22.368.0326-7.705.0672-15.41.0998-23.116 28.78463 1.435 42.4032 10.515 46.1107 31.449 2.3578 13.31-1.2883 26.437-4.0646 39.505-7.4842 35.234-14.56515 70.485-15.22755 106.239-.44736 24.1-.89856 48.199-1.37664 72.299-.2784 13.984-1.392 27.962-.31104 41.955.43392 5.597 1.63392 11.058 5.13792 16.08 3.69411 5.294 8.37501 5.503 13.35551.674 3.3869-3.285 5.8464-6.891 7.7299-10.831 9.9034-20.728 13.4362-42.683 23.353-63.429 21.4061-44.775 54.4643-83.256 108.3513-111.107 59.278-30.638 119.894-34.52 182.554-5.879 13.687 6.257 27.196 12.726 40.669 19.229 34.418 16.616 69.491 32.325 108.181 43.227 42.443 11.961 83.472 10.336 121.939-7.893 49.29-23.359 84.697-55.419 106.706-95.209 10.35-18.715 11.692-37.941 2.759-57.31-7.496-16.252-12.396-32.999-17.557-49.696-6.551-21.196-22.049-37.921-46.614-50.196-13.059-6.525-26.169-13.019-38.82-19.952-13.77-7.548-23.919-17.2-28.702-29.538-9.308-24.009 8.623-41.427 42.472-41.789 20.515-.219 40.702 2.23 61.074 3.123 53.354 2.342 105.69-3.978 158.196-9.33 32.241-3.287 64.495-6.645 97.338-3.85 30.367 2.586 49.076 13.06 54.466 32.528 1.63 5.867 2.32 11.945 2.49 17.94.56 20.553-3.74 40.801-7.81 61.059-10.452 51.971-30.933 101.402-68.211 146.724-14.598 17.747-29.845 35.267-41.422 54.248-11.532 18.905-19.191 38.278-15.211 59.461 3.543 18.855 19.511 34.107 41.426 37.315 15.846 2.322 30.78-.864 45.018-5.66 35.903-12.092 68.75-28.595 105.6-39.319 19.43-5.653 27.24-16.643 27.27-31.261.01-4.093-.25-8.193-.64-12.277-1.41-14.966-1.27-29.861 2.94-44.632 6.83-23.932 27.71-36.716 61.03-37.251 6.26-.1 12.53-.254 18.79-.164 35.71.513 58.02-12.14 69.56-36.596 9.05-19.198 14.98-38.92 20.85-58.679 13.71-46.138 27.42-92.281 53.59-135.762 27.88-46.322 64.38-88.4669 114.36-123.8643 7.45-5.2725 14.77-11.1243 25.94-12.4291.01 5.3077.01 10.6153.01 15.923Z" fill="#694C69"/><path d="M1461.88 48.9839c-11.17 1.3047-18.5 7.1565-25.94 12.429-49.98 35.3975-86.48 77.5421-114.36 123.8641-26.17 43.481-39.88 89.624-53.59 135.762-5.87 19.759-11.8 39.481-20.85 58.68-11.54 24.457-33.85 37.108-69.56 36.595-6.26-.09-12.53.065-18.79.165-33.32.534-54.2 13.319-61.03 37.25-4.21 14.772-4.35 29.667-2.94 44.632.39 4.085.65 8.185.64 12.277-.03 14.619-7.84 25.608-27.27 31.261-36.85 10.724-69.698 27.228-105.6 39.319-14.239 4.796-29.172 7.982-45.018 5.661-21.915-3.21-37.884-18.462-41.426-37.316-3.98-21.182 3.68-40.556 15.21-59.461 11.578-18.981 26.823-36.501 41.422-54.247 37.281-45.321 57.762-94.754 68.212-146.725 4.07-20.258 8.37-40.505 7.81-61.058-.17-5.995-.86-12.074-2.49-17.941-5.39-19.467-24.098-29.943-54.466-32.528-32.844-2.796-65.098.563-97.338 3.85-52.507 5.353-104.842 11.673-158.197 9.33-20.371-.894-40.558-3.343-61.073-3.123-33.85.363-51.779 17.781-42.473 41.79 4.783 12.337 14.932 21.989 28.703 29.537 12.65 6.934 25.76 13.427 38.82 19.952 24.565 12.275 40.065 28.999 46.614 50.196 5.161 16.696 10.061 33.445 17.556 49.696 8.934 19.371 7.592 38.597-2.759 57.31-22.009 39.79-57.415 71.85-106.706 95.209-38.467 18.23-79.495 19.854-121.939 7.893-38.69-10.902-73.762-26.611-108.18-43.227-13.473-6.504-26.982-12.973-40.67-19.228-62.659-28.642-123.275-24.76-182.553 5.878-53.889 27.851-86.9456 66.332-108.3517 111.108-9.9187 20.745-13.4515 42.7-23.353 63.429-1.8816 3.939-4.343 7.546-7.7299 10.83-4.9805 4.83-9.6614 4.622-13.35552-.673-3.504-5.024-4.70592-10.484-5.13792-16.081-1.08096-13.992.03264-27.971.31104-41.955.48-24.099.9312-48.199 1.37664-72.299.6624-35.753 7.74336-71.005 15.22756-106.239 2.7763-13.066 6.4224-26.195 4.0646-39.504-3.7075-20.933-17.32608-30.014-46.1126-31.448-.0231-6.249-.0461-12.497-.0692-18.747 5.6007.104 11.2071.117 16.80004.329 27.72866 1.049 45.60766 9.712 51.11236 25.013 2.6995 7.505 3.1699 15.139 1.9872 22.939-3.7344 24.64-12.9716 48.534-18.0077 73.001-4.7789 23.221-5.9808 46.52-4.3795 69.896.4723 6.91 1.7644 13.918 5.6294 20.473 4.345 7.369 8.7014 8.289 16.8538 2.629 4.9728-3.451 9.3638-7.437 13.4073-11.506 27.8688-28.053 58.7831-53.743 99.2121-72.721 58.921-27.661 118.898-30.523 180.436-5.234 14.893 6.121 29.428 12.726 43.891 19.382 33.412 15.376 66.912 30.598 104.285 40.506 33.567 8.898 67.092 11.374 100.395-.578 36.374-13.056 63.442-33.235 83.309-58.815 14.613-18.815 17.232-38.135 4.59-58.177-8.083-12.817-9.366-26.495-8.609-40.375.288-5.3.445-10.607.509-15.911.313-26.056-13.438-46.772-43.461-61.358-6.861-3.334-13.31-7.125-20.227-10.389-33.23-15.686-45.988-38.56-44.483-66.673 1.396-26.088 19.281-41.98 51.441-45.308 10.304-1.066 20.38.543 30.397 1.742 22.996 2.751 45.798 6.653 69.078 7.762 49.885 2.378 99.106-3.032 148.393-7.533 37.522-3.428 74.98-7.225 113.04-4.027 29.632 2.492 48.152 13.079 52.072 32.092 2.46 11.961 1.66 24.134-.23 36.091-3.79 24.078-9.32 47.981-15.04 71.863-9.74 40.669-25.413 79.792-52.59 116.267-17.935 24.07-39.539 46.63-55.078 71.671-9.306 14.996-16.577 30.5-14.964 47.247 1.939 20.148 17.069 38.607 52.001 34.455 7.788-.925 15.237-2.749 22.403-5.217 28.677-9.885 54.598-23.133 81.238-35.508 20.68-9.603 29.85-23.355 30.5-41.193.6-16.569.62-33.271 5.72-49.592 7.24-23.191 22.52-41.183 57.27-45.916 8.7-1.185 17.65-1.814 26.51-1.946 32.12-.478 55.53-10.472 68.28-32.56 2.17-3.759 4.39-7.511 6.29-11.346 13.11-26.461 20.42-54.061 29.42-81.316 15.87-48.055 36.61-94.722 71.3-137.513 26.5-32.693 56.47-63.4159 96.71-88.0223 7.72-4.7228 15.21-10.0726 25.95-11.1946v14.4678Z" fill="#F5F5F5"/><path d="M1461.88 34.5105c-10.74 1.122-18.23 6.4732-25.95 11.1946-40.24 24.605-70.21 55.3289-96.71 88.0229-34.69 42.79-55.43 89.459-71.3 137.512-9 27.255-16.31 54.854-29.42 81.316-1.9 3.834-4.12 7.586-6.29 11.347-12.75 22.088-36.16 32.082-68.28 32.56-8.86.132-17.81.759-26.51 1.946-34.75 4.732-50.03 22.725-57.27 45.915-5.1 16.321-5.12 33.024-5.72 49.593-.65 17.838-9.82 31.59-30.5 41.193-26.64 12.374-52.563 25.623-81.238 35.507-7.166 2.47-14.615 4.292-22.403 5.218-34.932 4.152-50.062-14.308-52.001-34.456-1.613-16.747 5.658-32.251 14.965-47.247 15.538-25.04 37.142-47.599 55.077-71.671 27.175-36.473 42.85-75.596 52.59-116.266 5.72-23.883 11.25-47.785 15.04-71.864 1.89-11.956 2.69-24.13.23-36.09-3.92-19.012-22.44-29.601-52.072-32.092-38.062-3.199-75.518.599-113.04 4.026-49.287 4.502-98.508 9.911-148.393 7.534-23.282-1.11-46.082-5.013-69.078-7.763-10.018-1.198-20.093-2.808-30.397-1.742-32.16 3.328-50.045 19.22-51.441 45.309-1.503 28.111 11.253 50.985 44.483 66.672 6.917 3.265 13.365 7.057 20.227 10.389 30.023 14.586 43.774 35.303 43.461 61.358-.064 5.305-.221 10.611-.509 15.912-.755 13.878.526 27.557 8.609 40.374 12.642 20.043 10.023 39.363-4.59 58.178-19.869 25.579-46.937 45.758-83.309 58.814-33.303 11.954-66.828 9.478-100.395.578-37.373-9.908-70.871-25.129-104.285-40.505-14.463-6.656-29-13.262-43.891-19.382-61.538-25.291-121.515-22.427-180.436 5.233-40.429 18.98-71.3452 44.67-99.2121 72.721-4.0435 4.07-8.4345 8.055-13.4073 11.507-8.1543 5.659-12.5107 4.741-16.8538-2.629-3.8649-6.555-5.1552-13.564-5.6294-20.473-1.5994-23.376-.3994-46.674 4.3795-69.897 5.0362-24.468 14.2733-48.36 18.0077-73.001 1.1827-7.8.7123-15.433-1.9872-22.938-5.5047-15.302-23.3837-23.963-51.11233-25.013-5.59297-.213-11.19937-.224-16.79997-.329-.0173-6.143-.0346-12.286-.0519-18.427 16.45442.256 32.8992-.547 49.3632 1.082 32.8243 3.252 48.5895 15.676 48.9159 39.946.2419 18.008-6.5991 35.199-12.5204 52.457-6.0038 17.5-11.808 34.996-13.8297 53.071-.841 7.519-.7277 14.928.8659 22.344 2.7168 12.633 11.8061 15.993 26.0448 8.775 17.5814-8.912 34.1681-18.866 51.5921-27.953 27.74-14.468 57.337-26.322 91.231-31.057 40.46-5.652 78.895-.333 115.809 12.353 35.437 12.179 67.409 28.861 102.151 41.942 24.58 9.256 49.646 17.248 76.883 21.73 55.841 9.192 103.555-21.519 117.894-45.117 7.084-11.659 7.305-23.306-3.213-33.682-15.55-15.341-16.062-31.388-7.92-48.679 5.584-11.857 9.975-24.026 10.495-36.688.778-18.867-10.03-33.646-30.758-44.493-10.708-5.604-21.904-10.73-33.103-15.805-16.203-7.342-26.296-17.547-27.5-31.638-1.807-21.165-3.535-42.447 2.623-63.365 11.159-37.917 43.424-52.566 94.855-43.969 23.943 4.002 47.576 8.903 72.023 11.427 29.294 3.024 58.455 2.406 87.641.225 32.645-2.438 65.258-5.159 97.826-8.111 20.599-1.867 41.303-2.433 61.96-3.591 18.213-1.022 36.253-.065 54.044 2.486 25.78 3.696 37.82 14.595 38.32 34.663.39 15.694-4.01 31.06-7.7 46.44-8.15 34.014-16.32 68.024-24.61 102.02-9.2 37.735-31.177 71.613-58.393 103.978-17.025 20.246-35.228 40.075-46.808 62.496-5.595 10.835-10.118 22.018-7.626 33.754 4.062 19.127 21.162 27.774 45.844 21.087 34.999-9.483 65.673-24.669 89.433-45.967 14.42-12.933 14.53-29.533 16.01-45.393 1.26-13.693 2.62-27.374 7.33-40.714 11.43-32.38 36.54-47.943 81.95-51.082 7.2-.498 14.39-1.2 21.54-2.045 26.14-3.09 42.64-14.889 53.58-31.794 15.44-23.834 22.97-49.454 31.38-74.831 16.36-49.359 35.75-97.873 71.32-142.012 29.88-37.0592 66.15-70.1874 113.39-96.3123 7.47-4.1308 14.76-8.9941 25.08-9.1544v13.0322Z" fill="#694C69"/><path d="M1242.29 713.367h-11.87c-5-9.502-12.59-17.983-20.21-26.373-26.46-29.133-53.55-57.948-89.1-81.778-18.41-12.342-39.88-18.568-65.14-16.224-15.84 1.471-30.45 5.89-44.86 10.694-18.253 6.086-36.042 12.963-55.294 17.365-31.134 7.12-59.815 4.712-84.91-11.623-11.781-7.668-19.922-17.247-26.498-27.605-14.457-22.766-17.66-47.203-19.538-71.784-.643-8.422-.556-16.873-2.281-25.239-1.96-9.504-8.29-12.103-19.82-7.862-5.27 1.939-10.297 4.309-15.116 6.812-34.706 18.023-62.463 41.376-90.954 64.108-33.475 26.707-70.393 49.958-115.548 65.677-23.854 8.304-46.103 18.645-67.004 30.528-9.625 5.473-19.553 10.7-31.006 14.038-16.145 4.706-31.169 3.007-44.398-5.094-13.296-8.144-17.795-18.874-14.458-31.199 1.402-5.178 3.687-10.257 6.016-15.269 6.248-13.436 2.68-25.5-10.647-35.44-34.089-25.422-71.927-47.533-114.641-64.68-29.977-12.034-61.167-11.621-92.143-1.01-31.211 10.692-55.946 27.014-76.212 47.103-24.87 24.651-38.2561 53.106-49.5841 82.147-10.9132 27.98-21.2908 56.078-37.728 82.703h-7.9142c4.0013-7.591 8.0448-15.169 11.9923-22.775 14.2291-27.41 21.577-56.287 33.4906-84.196 16.8634-39.497 43.3444-74.19 89.5524-99.581 51.898-28.52 99.214-30.721 152.389-5.875 19.67 9.193 38.357 19.537 57.196 29.652 24.409 13.104 50.26 24.907 71.734 40.733 27.507 20.273 22.264 28.622 9.895 43.861-4.084 5.033-8.202 10.926-.904 15.853 7.325 4.945 15.548 1.711 22.984-.988 2.611-.948 5.052-2.346 7.125-3.863 19.888-14.552 44.807-22.664 70.647-29.52 41.719-11.069 76.817-29.342 107.721-52.316 27.299-20.294 51.664-42.55 78.501-63.124 52.921-40.568 78.795-89.143 83.611-144.597 1.803-20.755.078-41.471 1.108-62.187 1.244-25.058 18.134-39.749 51.561-45.266 27.905-4.605 49.557 3.24 58.263 21.31 2.849 5.913 4.61 12.058 4.992 18.364 3.137 51.685-16.887 98.846-52.167 143.035-16.414 20.559-36.263 39.745-47.556 62.358-16.601 33.236-19.244 66.741-.728 100.028 16.406 29.494 48.63 42.955 88.896 37.695 15.953-2.084 30.578-7.156 45.12-12.225 17.475-6.091 34.565-12.772 53.035-17.271 31.85-7.759 60.27-3.612 85.39 12.644 27.42 17.739 47.7 39.799 68.74 61.339 17.76 18.186 35.25 36.554 48.27 56.917ZM925.438 305.423c-.083-7.655-1.53-15.019-5.524-22.018-5.712-10.011-18.685-11.205-27.546-2.455-4.545 4.486-7.2 9.694-9.293 15.075-5.518 14.181-8.515 28.718-11.249 43.265-3.049 16.216-5.557 32.489-7.964 48.763-.559 3.782-.542 8.375 5.09 10.129 5.095 1.588 8.062-1.972 11.124-4.524 30.317-25.276 41.326-55.803 45.362-88.235Z" fill="#F5F5F5"/><path d="M1242.29 713.367c-13.02-20.363-30.51-38.733-48.27-56.912-21.03-21.54-41.32-43.6-68.74-61.34-25.12-16.258-53.54-20.404-85.39-12.644-18.47 4.499-35.56 11.18-53.033 17.271-14.542 5.069-29.167 10.142-45.12 12.225-40.266 5.259-72.49-8.202-88.896-37.695-18.517-33.288-15.873-66.792.728-100.028 11.293-22.613 31.144-41.799 47.556-62.358 35.28-44.189 55.304-91.349 52.167-143.035-.383-6.306-2.143-12.451-4.993-18.363-8.705-18.07-30.357-25.917-58.262-21.311-33.427 5.515-50.317 20.208-51.562 45.266-1.029 20.716.696 41.432-1.107 62.187-4.816 55.454-30.69 104.03-83.611 144.598-26.837 20.574-51.202 42.829-78.501 63.123-30.904 22.974-66.002 41.247-107.721 52.316-25.84 6.856-50.761 14.969-70.647 29.521-2.073 1.517-4.514 2.913-7.125 3.862-7.438 2.699-15.661 5.933-22.984.988-7.296-4.925-3.18-10.82.904-15.852 12.369-15.24 17.612-23.589-9.895-43.862-21.474-15.826-47.325-27.629-71.734-40.733-18.839-10.115-37.524-20.459-57.196-29.651-53.175-24.847-100.491-22.644-152.389 5.874-46.207 25.391-72.689 60.084-89.5525 99.581-11.9156 27.909-19.2615 56.786-33.4906 84.196-3.9475 7.605-7.993 15.185-11.9923 22.776H29.5641c18.4551-23.654 27.1162-49.759 35.6621-75.913 8.6324-26.416 18.4589-52.566 35.6348-76.858 22.883-32.36 55.611-57.736 100.04-74.63 40.474-15.392 80.632-14.973 120.553 1.382 27.673 11.336 52.46 25.776 78.712 38.637 27.382 13.412 55.819 25.619 83.338 38.841 43.338 20.822 86.081 17.116 128.903.009 27.491-10.982 50.477-26.191 71.472-43.02 33.588-26.927 66.586-54.279 90.536-86.53 37.388-50.347 41.8-102.233 11.554-155.401-4.304-7.567-8.715-15.128-12.246-22.895-5.249-11.543-1.931-18.741 11.935-25.602 21.387-10.584 45.978-15.571 70.545-20.228 21.097-4 42.547-6.549 64.581-4.758 26.02 2.116 42.428 12.193 48.722 30.735 6.562 19.333 4.235 38.818 1.019 58.252-8.619 52.083-33.905 99.643-72.24 143.817-18.537 21.361-35.785 43.361-42.56 68.679-6.123 22.883-6.135 45.466 8.238 67.009 17.597 26.372 48.398 36.129 86.702 27.639 21.535-4.774 40.85-13.104 60.895-20.273 17.75-6.351 35.74-12.316 55.76-13.63 35.05-2.3 62.66 8.543 83.49 27.986 39.04 36.442 73.67 75.173 106.63 114.689.48.575.46 1.372.67 2.065-5.27-.002-10.55-.002-15.82-.002Z" fill="#694C69"/><path d="M1461.88 664.154c0 15.199-.16 30.397.13 45.593.06 3.115-.82 3.752-5.08 3.714-22.75-.2-45.5-.095-68.25-.095 6.52-6.186 16.33-8.729 25.36-12.066 16.52-6.103 18.59-11.404 8.26-22.745-7.19-7.882-16.05-14.677-26.2-20.534-26.11-15.067-54.87-27.559-79.6-43.986-19.03-12.637-38.71-24.827-51.72-41.436-3.77-4.813-7.87-10.195-2.29-15.501 5.03-4.778 12.78-3.872 20.08-3.473 16.45.9 32.2 5.149 48.79 5.372 22.29.301 31.22-5.909 32.26-22.218.9-13.841-2.05-27.406-5.38-40.919-7.48-30.371-13.52-60.889-14.54-91.764-1.54-46.533 6.17-92.335 23.57-137.132 14.79-38.095 36.21-73.93 70.84-104.882 6.61-5.909 12.93-12.321 23.77-14.671v33.291c-7.25-.983-10.64 3.177-14.43 6.219-16.8 13.504-28.58 29.367-38.85 45.841-21.63 34.663-33.17 71.338-39.3 108.972-4.69 28.772-5.44 57.652-1.59 86.536 4.13 30.959 13.49 61.153 24.75 91.09 10.28 27.348 18.91 54.739 4.24 82.907-3.14 6.035-.83 12.498 3.58 18.126 11.21 14.315 25.07 27.132 42.11 37.974 5.44 3.458 11.49 6.588 19.49 5.787Z" fill="#fff"/><path d="M1461.88 147.411c-10.84 2.351-17.16 8.762-23.77 14.671-34.63 30.952-56.04 66.785-70.84 104.882-17.39 44.798-25.11 90.599-23.57 137.132 1.02 30.875 7.06 61.393 14.55 91.764 3.33 13.513 6.27 27.077 5.38 40.919-1.05 16.309-9.97 22.519-32.27 22.219-16.58-.224-32.33-4.473-48.79-5.373-7.3-.399-15.04-1.303-20.07 3.473-5.59 5.306-1.48 10.687 2.28 15.501 13.01 16.609 32.69 28.799 51.72 41.436 24.73 16.427 53.49 28.919 79.61 43.986 10.15 5.857 19 12.652 26.19 20.534 10.34 11.341 8.26 16.642-8.26 22.745-9.03 3.335-18.83 5.88-25.36 12.067h-25.71c.94-1.787 1.72-3.629 2.85-5.353 13.84-21.204 12.64-27.584-10.17-44.002-18.31-13.183-37.38-25.802-55.8-38.901-24.08-17.113-50.13-32.815-70.59-52.517-10.03-9.66-19.1-19.714-21.04-32.187-2.04-13.053 6.18-20.325 23.88-21.144 10.88-.504 21.72-.075 32.54.95 10.77 1.021 21.51 2.344 32.44 1.961 17.22-.601 25.2-5.354 29.08-17.532 2.32-7.314 2.97-14.738 2.36-22.252-1.65-20.197-3.76-40.387-4.59-60.604-2.05-49.845 4.69-99.081 21.38-147.487 17.69-51.341 45.97-98.905 94.26-139.158 6.22-5.19 12.07-10.945 22.31-12.338v24.608ZM49.3459 713.367c16.4352-26.627 26.8129-54.723 37.728-82.704 11.3281-29.043 24.7121-57.496 49.5841-82.147 20.266-20.089 45.001-36.411 76.212-47.103 30.974-10.609 62.164-11.024 92.143 1.01 42.714 17.148 80.552 39.258 114.641 64.68 13.329 9.939 16.894 22.004 10.647 35.44-2.331 5.012-4.614 10.089-6.016 15.269-3.337 12.324 1.16 23.056 14.458 31.199 13.227 8.102 28.253 9.8 44.398 5.094 11.453-3.338 21.381-8.565 31.006-14.037 20.901-11.884 43.15-22.224 67.004-30.529 45.155-15.72 82.075-38.97 115.548-65.677 28.493-22.732 56.248-46.083 90.954-64.108 4.819-2.503 9.846-4.873 15.116-6.812 11.53-4.241 17.862-1.642 19.82 7.862 1.725 8.365 1.638 16.817 2.281 25.239 1.878 24.582 5.081 49.018 19.538 71.784 6.578 10.358 14.719 19.937 26.498 27.605 25.093 16.335 53.776 18.742 84.91 11.624 19.252-4.403 37.041-11.279 55.294-17.366 14.41-4.804 29.02-9.223 44.86-10.694 25.26-2.345 46.73 3.882 65.14 16.224 35.55 23.829 62.64 52.645 89.1 81.778 7.62 8.389 15.21 16.871 20.21 26.373h-9.9c-.69-1.337-1.15-2.77-2.11-3.997-25.12-32.173-55.03-61.742-90.55-88.178-13.74-10.228-29.04-18.826-48.81-22.236-21.49-3.707-41 1.245-60.36 6.925-20.445 5.998-39.83 13.89-61.017 18.552-38.916 8.564-72.747 2.996-100.426-19.566-16.89-13.767-26.442-30.329-34.337-47.548-5.962-13.003-9.657-26.58-17.685-39.049-6.82-10.593-17.213-13.149-31.68-8.301-6.906 2.314-13.354 5.226-19.398 8.62-16.022 8.997-29.825 19.698-43.805 30.277-28.634 21.669-56.373 44.224-92.705 59.319-41.234 17.131-82.917 33.557-121.876 53.576-25.889 13.304-52.193 10.5-76.057-4.951-22.016-14.254-27.959-32.113-21.682-52.487 5.478-17.776-.822-32.826-17.889-45.8-21.594-16.417-45.431-30.797-72.14-42.545-33.832-14.881-67.966-14.667-102.267-.795-21.955 8.877-40.199 20.932-55.949 35.086-27.832 25.013-42.209 54.713-54.9232 84.958-11.1053 26.417-21.9706 52.889-37.5936 78.141-2.64-.005-5.2762-.005-7.9143-.005Z" fill="#694C69"/><path d="M1461.88 122.804c-10.24 1.394-16.09 7.148-22.32 12.338-48.29 40.254-76.56 87.817-94.26 139.159-16.68 48.406-23.43 97.641-21.38 147.486.83 20.217 2.94 40.407 4.59 60.605.62 7.513-.03 14.937-2.36 22.251-3.87 12.179-11.85 16.931-29.07 17.533-10.93.382-21.68-.941-32.45-1.962-10.81-1.025-21.66-1.453-32.53-.95-17.7.82-25.92 8.091-23.89 21.145 1.95 12.472 11.01 22.527 21.04 32.186 20.47 19.704 46.52 35.406 70.59 52.517 18.43 13.098 37.5 25.718 55.81 38.901 22.8 16.418 24.01 22.798 10.17 44.002-1.13 1.724-1.92 3.566-2.86 5.353h-23.74c6.07-17.505-.82-32.725-14.98-46.824-21.18-21.083-46.08-39.639-72.07-57.473-18.77-12.873-37.42-25.866-52.75-41.057-17.07-16.917-30.44-35.085-29.84-56.944.37-13.177 9.96-20.504 27.84-21.816 10.85-.795 21.73-.233 32.56.644 11.16.904 22.35 1.36 33.55.689 16.11-.964 26.88-6.893 32.01-18.328 4.16-9.283 5.45-18.898 6.07-28.49 2.21-34.16 3.73-68.328 9.8-102.308 7.92-44.28 20.87-87.612 43.95-129.069 20.28-36.432 47.36-69.878 84.13-98.822 6.41-5.048 12.34-10.808 22.39-12.474v21.708Z" fill="#F5F5F5"/><path d="M1461.88 664.154c-8 .803-14.05-2.329-19.48-5.786-17.04-10.842-30.9-23.659-42.12-37.973-4.41-5.627-6.72-12.092-3.57-18.126 14.67-28.167 6.04-55.56-4.25-82.908-11.26-29.937-20.62-60.13-24.75-91.089-3.85-28.884-3.09-57.764 1.59-86.537 6.14-37.634 17.67-74.307 39.3-108.972 10.28-16.474 22.06-32.336 38.86-45.841 3.78-3.042 7.17-7.203 14.42-6.219v49.215c-7.26-.672-10.47 3.516-14.02 6.719-10.25 9.254-17.42 19.902-23.22 30.921-33.28 63.188-40.38 128.203-23.2 194.538 8.06 31.15 22.2 60.902 45.74 87.867 3.47 3.977 6.92 8.351 14.7 8.527v105.664Z" fill="#694C69"/><path d="M57.2582 713.367c15.6231-25.252 26.4884-51.724 37.5936-78.142 12.7142-30.244 27.0912-59.944 54.9232-84.957 15.75-14.154 33.994-26.208 55.949-35.087 34.301-13.87 68.435-14.084 102.267.796 26.709 11.747 50.546 26.128 72.14 42.544 17.067 12.975 23.367 28.024 17.889 45.8-6.277 20.375-.334 38.234 21.682 52.488 23.866 15.45 50.168 18.254 76.057 4.95 38.959-20.018 80.644-36.446 121.876-53.575 36.332-15.094 64.069-37.649 92.705-59.319 13.98-10.579 27.783-21.28 43.805-30.277 6.044-3.394 12.492-6.306 19.398-8.62 14.469-4.85 24.862-2.292 31.68 8.301 8.028 12.468 11.724 26.046 17.685 39.048 7.895 17.22 17.447 33.781 34.337 47.549 27.679 22.562 61.51 28.129 100.426 19.565 21.187-4.662 40.573-12.554 61.019-18.552 19.36-5.68 38.86-10.63 60.36-6.924 19.77 3.408 35.07 12.007 48.81 22.236 35.52 26.435 65.43 56.005 90.55 88.177.96 1.226 1.42 2.66 2.11 3.997h-7.91c-25.03-31.607-54.98-60.41-90.83-85.904-28.3-20.122-60.45-25.878-97.49-14.569-19.33 5.904-38.462 12.251-58.177 17.387-36.806 9.589-71.702 7.21-102.791-11.431-17.911-10.739-29.91-24.813-40.13-39.763-8.073-11.809-14.164-24.322-23.408-35.711-10.51-12.945-24.578-15.709-42.569-8.456-3.734 1.506-7.336 3.231-10.782 5.072-18.467 9.862-34.03 22.038-49.732 34.045-31.984 24.456-68.807 43.871-110.646 58.274-24.405 8.401-47.76 18.131-69.631 29.741-8.24 4.374-16.711 8.538-25.328 12.503-9.648 4.438-20.406 6.968-31.769 6.613-36.487-1.138-76.782-25.434-85.659-51.283-3.488-10.16-3.381-20.539-3.002-30.892.501-13.729-3.946-26.257-15.827-37.098-17.119-15.62-37.615-28.327-62.051-37.385-24.718-9.161-49.937-9.213-75.164-.995-22.039 7.18-40.272 18.07-56.133 31.236-23.875 19.819-38.749 43.255-50.671 67.82-14.7509 30.392-27.4056 61.345-45.6475 90.798h-7.9143Z" fill="#fff"/><path d="M1461.88 101.093c-10.04 1.667-15.98 7.426-22.39 12.474-36.76 28.945-63.84 62.39-84.13 98.822-23.08 41.457-36.03 84.789-43.94 129.069-6.08 33.981-7.59 68.149-9.81 102.308-.62 9.592-1.91 19.207-6.07 28.49-5.13 11.435-15.9 17.364-32.01 18.328-11.2.671-22.39.215-33.55-.689-10.83-.877-21.7-1.439-32.56-.644-17.87 1.312-27.47 8.639-27.84 21.816-.6 21.859 12.77 40.027 29.85 56.944 15.33 15.191 33.97 28.185 52.74 41.057 25.99 17.834 50.89 36.39 72.07 57.473 14.16 14.099 21.05 29.319 14.98 46.824h-25.72c3.97-21.146-8.4-38.581-23.89-55.145-22.17-23.712-51.46-42.576-80.41-61.547-38-24.912-63-54.75-68.96-92.348-.99-6.257-1.4-12.516.04-18.743 3.36-14.547 14.32-22.174 34.35-23.535 6.52-.443 13.16-.13 19.73.073 9.87.303 19.73 1.112 29.6 1.181 29.79.205 43.59-7.254 51.7-28.21 8.11-20.969 10.16-42.695 13.99-64.184 11.12-62.467 26.32-124.171 63.05-181.87 22.42-35.209 51.01-67.41 87.92-95.4761 6.12-4.6511 12.06-9.6607 21.26-11.286v18.8181ZM90.8909 713.367H80.999c8.0621-13.163 16.2087-26.3 24.167-39.496 15.381-25.511 27.41-52.176 48.57-75.692 16.038-17.823 35.611-32.854 62.934-41.494 27.097-8.568 54.518-4.478 75.389 10.774 14.06 10.275 20.884 23.183 26.137 36.758 3.406 8.801 6.522 17.678 10.498 26.34 16.53 35.997 54.882 54.401 100.766 66.954 26.542 7.261 50.375 4.6 71.9-8.695 28.416-17.551 59.935-31.181 94.345-41.477 43.793-13.105 82.122-32.374 116.5-56.079 11.241-7.752 22.861-15.33 36.845-20.512 15.569-5.771 27.121-4.646 39.713 4.071 3.803 2.634 7.138 5.672 10.351 8.715 11.671 11.052 21.565 23.085 34.368 33.515 34.688 28.262 82.381 43.13 136.807 28.776 18.855-4.973 37.361-10.657 56.271-15.501 26.31-6.74 52.01-6.075 75.23 6.29 38.62 20.574 68.56 46.919 93.02 76.754h-7.92c-19.95-21.707-43.16-41.244-70.43-58.28-28.76-17.966-60.24-23.708-96.16-13.447-10.41 2.974-21.038 5.569-31.295 8.799-50.041 15.751-96.819 12.133-140.181-12.327-14.165-7.99-26.24-17.55-37.678-27.548-7.818-6.834-15.093-14.015-24.557-19.759-12.533-7.608-25.956-8.604-40.414-3.168-9.152 3.44-17.345 7.89-25.138 12.724-35.117 21.782-72.624 40.888-115.93 52.888-38.598 10.696-73.784 25.068-104.302 45.652-14.534 9.802-32.53 15.781-52.581 12.645-40.128-6.276-77.075-18.008-107.487-38.869-19.959-13.69-30.895-31.6-41.835-49.457-7.411-12.096-14.485-24.366-27.871-33.84-15.341-10.858-33.143-14.137-53.662-9.534-13.206 2.963-24.386 8.352-34.614 14.946-8.196 5.284-15.512 11.21-21.569 17.827-28.873 31.539-47.551 66.906-70.2951 100.747Z" fill="#694C69"/><path d="M65.1725 713.367c18.2438-29.452 30.8966-60.405 45.6475-90.799 11.922-24.562 26.796-48 50.671-67.819 15.861-13.166 34.094-24.056 56.133-31.236 25.227-8.218 50.444-8.166 75.164.995 24.438 9.058 44.934 21.765 62.051 37.385 11.881 10.841 16.328 23.369 15.827 37.098-.379 10.353-.486 20.732 3.003 30.891 8.876 25.851 49.171 50.147 85.658 51.284 11.363.355 22.121-2.175 31.769-6.613 8.619-3.965 17.09-8.129 25.328-12.503 21.871-11.612 45.224-21.34 69.631-29.741 41.837-14.401 78.662-33.818 110.646-58.274 15.702-12.007 31.265-24.183 49.732-34.045 3.446-1.841 7.048-3.566 10.782-5.072 17.991-7.253 32.059-4.489 42.569 8.456 9.246 11.387 15.337 23.902 23.408 35.711 10.221 14.95 22.219 29.024 40.13 39.763 31.089 18.64 65.985 21.02 102.791 11.431 19.715-5.136 38.847-11.483 58.177-17.387 37.04-11.308 69.19-5.552 97.49 14.569 35.85 25.494 65.8 54.297 90.83 85.904h-9.89c-.33-.905-.39-1.927-1.03-2.698-22.84-27.818-50.42-52.843-82.84-74.986-29.82-20.359-63.23-24.694-100.75-12.41-15.83 5.184-32.034 9.797-48.304 14.205-37.323 10.109-72.726 7.659-105.546-9.499-19.986-10.446-33.879-24.669-46.251-39.868-8.062-9.905-14.894-20.422-25.331-29.193-11.883-9.985-23.479-11.594-39.579-5.645-4.671 1.727-9.164 3.823-13.342 6.133-15.016 8.304-28.345 18.002-41.794 27.587-26.103 18.601-54.784 34.703-87.817 46.077-39.9 13.74-78.695 28.593-113.601 48.647-14.603 8.389-32.098 12.488-50.982 8.419-47.927-10.329-84.971-29.38-96.731-67.397-3.255-10.522-4.192-21.417-6.791-32.064-11.885-48.653-87.33-72.378-143.107-45.046-33.178 16.257-54.528 39.435-70.203 65.644-20.08 33.576-34.5988 68.787-55.64 102.093-2.6324.003-5.2704.003-7.9085.003Z" fill="#694C69"/><path d="M73.0848 713.367c21.0413-33.306 35.5602-68.518 55.6392-102.093 15.673-26.209 37.026-49.387 70.203-65.645 55.778-27.332 131.223-3.606 143.108 45.047 2.599 10.646 3.536 21.54 6.791 32.064 11.76 38.017 48.804 57.068 96.731 67.397 18.881 4.069 36.378-.03 50.982-8.419 34.905-20.054 73.701-34.907 113.601-48.647 33.033-11.374 61.716-27.476 87.816-46.077 13.45-9.585 26.779-19.283 41.795-27.587 4.178-2.31 8.671-4.407 13.342-6.133 16.097-5.949 27.696-4.34 39.579 5.645 10.437 8.771 17.267 19.286 25.331 29.193 12.37 15.199 26.265 29.422 46.25 39.868 32.821 17.158 68.224 19.608 105.547 9.499 16.272-4.408 32.48-9.021 48.31-14.205 37.51-12.284 70.93-7.949 100.74 12.41 32.42 22.143 60.01 47.168 82.85 74.986.63.77.69 1.793 1.02 2.698h-7.91c-24.46-29.835-54.39-56.18-93.02-76.754-23.22-12.367-48.92-13.03-75.23-6.29-18.91 4.845-37.416 10.53-56.271 15.501-54.426 14.354-102.119-.514-136.807-28.776-12.801-10.43-22.697-22.463-34.368-33.515-3.213-3.043-6.548-6.08-10.351-8.715-12.591-8.718-24.144-9.843-39.713-4.071-13.984 5.182-25.604 12.76-36.845 20.512-34.378 23.705-72.707 42.976-116.5 56.079-34.41 10.297-65.929 23.926-94.345 41.477-21.525 13.296-45.358 15.956-71.9 8.695-45.884-12.551-84.236-30.956-100.766-66.954-3.978-8.662-7.094-17.539-10.498-26.34-5.253-13.574-12.077-26.483-26.137-36.758-20.871-15.252-48.292-19.342-75.389-10.774-27.322 8.64-46.896 23.671-62.934 41.494-21.162 23.516-33.189 50.181-48.57 75.692-7.9583 13.196-16.1049 26.333-24.167 39.496h-7.9142Z" fill="#F5F5F5"/><path d="M90.8909 713.366c22.7441-33.841 41.4221-69.207 70.2951-100.746 6.057-6.617 13.373-12.543 21.569-17.827 10.23-6.594 21.41-11.983 34.614-14.946 20.519-4.603 38.321-1.324 53.662 9.534 13.386 9.475 20.46 21.744 27.871 33.84 10.942 17.857 21.876 35.767 41.835 49.457 30.412 20.86 67.357 32.591 107.487 38.869 20.051 3.137 38.047-2.841 52.581-12.645 30.518-20.586 65.704-34.958 104.302-45.652 43.306-12 80.813-31.106 115.93-52.888 7.793-4.835 15.988-9.284 25.138-12.724 14.458-5.436 27.879-4.44 40.414 3.167 9.464 5.745 16.739 12.926 24.557 19.76 11.438 9.998 23.513 19.558 37.678 27.548 43.362 24.459 90.14 28.078 140.181 12.327 10.257-3.229 20.885-5.825 31.295-8.799 35.92-10.26 67.4-4.519 96.16 13.447 27.27 17.035 50.48 36.573 70.43 58.28H1177c-20.4-21.304-44.65-39.793-74.33-54.304-22.73-11.116-47.09-13.869-73.46-8.346-13.31 2.788-26.08 6.576-39.06 9.997-16.712 4.405-33.489 8.583-51.495 9.251-33.456 1.242-62.379-7.827-89.55-20.885-20.838-10.013-37.423-23.523-55.177-36.085-19.383-13.714-34.772-14.872-57.717-4.767-2.821 1.241-5.649 2.511-8.245 3.984-44.88 25.47-94.65 44.133-148.235 57.684-33.493 8.47-59.15 25.255-83.282 43.471h-94.96c-4.155-1.408-8.179-3.088-12.484-4.18-45.523-11.549-79.946-32.722-103.95-63.266-7.051-8.973-15.113-17.561-25.291-24.889-20.424-14.707-44.04-16.452-68.246-5.194-12.148 5.65-21.94 13.104-30.257 21.563-23.491 23.892-41.261 50.242-60.48 75.966-3.2968-.001-6.5935-.002-9.8901-.002Z" fill="#fff"/><path d="M1461.88 558.489c-7.78-.175-11.23-4.549-14.7-8.528-23.54-26.964-37.68-56.716-45.74-87.866-17.18-66.335-10.08-131.352 23.2-194.539 5.8-11.019 12.97-21.666 23.22-30.92 3.56-3.203 6.76-7.392 14.02-6.72v141.852c-3.74 1.306-6.12 3.288-7.5 6.289-8.82 19.179-10.24 38.711-5 58.461 1.55 5.869 4.2 11.774 12.5 14.859v107.112Z" fill="#F5F5F5"/><path d="M549.865 713.367h-21.761c17.969-13.896 39.943-22.745 65.218-27.131 44.684-7.754 88.328-17.784 129.725-32.423 27.402-9.69 52.956-8.613 78.672 3.378 23.065 10.755 47.71 19.497 72.467 28.061 36.065 12.476 72.433 14.883 110.096 4.18 13.181-3.747 26.758-6.803 40.318-9.771 15.26-3.341 30.86-5.099 46.8-2.945 33.68 4.553 59.4 18.668 81.86 36.652h-19.78c-17.97-11.512-39.08-17.648-62.73-18.399-34.94-1.109-65.84 9.91-97.519 18.399h-75.178c-21.387-6.203-42.248-13.374-64.157-18.621-21.569-5.167-43.687-7.151-66.197-5.274-30.369 2.532-60.749 4.563-91.306 5.641-28.863 1.016-57.907 1.213-86.408 5.443-14.58 2.162-28.679 5.302-40.12 12.81Z" fill="#694C69"/><path d="M1153.26 713.367c-22.46-17.985-48.18-32.099-81.86-36.652-15.94-2.155-31.54-.398-46.8 2.944-13.56 2.97-27.137 6.025-40.318 9.772-37.661 10.704-74.031 8.295-110.096-4.18-24.757-8.564-49.404-17.305-72.467-28.061-25.716-11.992-51.272-13.069-78.672-3.379-41.397 14.641-85.041 24.67-129.725 32.424-25.275 4.387-47.249 13.236-65.218 27.13h-15.827c18.651-15.793 41.023-27.704 68.045-34.68 16.114-4.161 32.313-8.149 48.47-12.221 36.72-9.253 69.756-23.842 102.699-38.446 23.217-10.292 43.895-8.673 64.295 4.104 21.529 13.484 43.882 26.207 69.527 35.479 28.595 10.339 57.986 17.266 90.396 12.469 22.03-3.261 42.701-9.713 63.871-14.971 31.44-7.812 60.89-5.416 88.56 8.181 18.43 9.06 35.16 19.538 49.4 32.025 2.81 2.467 7.48 4.173 7.59 8.059-3.96.003-7.91.003-11.87.003Z" fill="#F5F5F5"/><path d="M1165.13 713.366c-.11-3.886-4.78-5.59-7.59-8.059-14.24-12.486-30.97-22.964-49.41-32.024-27.67-13.598-57.11-15.995-88.55-8.182-21.17 5.259-41.843 11.709-63.873 14.971-32.408 4.798-61.801-2.13-90.396-12.468-25.647-9.273-48-21.996-69.527-35.479-20.4-12.776-41.078-14.395-64.295-4.104-32.943 14.604-65.979 29.193-102.699 38.445-16.158 4.072-32.355 8.061-48.47 12.221-27.02 6.977-49.392 18.887-68.045 34.681h-15.826c24.132-18.216 49.789-35.003 83.282-43.471 53.585-13.551 103.355-32.214 148.235-57.684 2.596-1.473 5.424-2.742 8.245-3.984 22.945-10.105 38.336-8.947 57.717 4.767 17.754 12.563 34.339 26.073 55.177 36.085 27.17 13.056 56.094 22.127 89.55 20.885 18.006-.668 34.783-4.846 51.495-9.251 12.98-3.421 25.75-7.21 39.06-9.997 26.37-5.523 50.73-2.77 73.46 8.346 29.68 14.513 53.93 33 74.33 54.304-3.96-.002-7.91-.002-11.87-.002ZM100.783 713.367c19.219-25.725 36.989-52.074 60.48-75.967 8.317-8.458 18.107-15.913 30.257-21.562 24.205-11.258 47.821-9.513 68.246 5.194 10.178 7.329 18.24 15.917 25.291 24.889 24.002 30.544 58.427 51.717 103.95 63.266 4.305 1.092 8.329 2.772 12.484 4.18h-47.479c-.982-.573-1.846-1.374-2.963-1.685-31.407-8.727-55.974-23.995-77.155-42.669-8.828-7.785-18.135-15.327-29.461-21.305-17.789-9.389-36.357-10.45-55.632-2.59-8.117 3.31-15.293 7.553-21.548 12.568-21.193 16.985-37.774 36.399-54.599 55.681h-11.871Z" fill="#694C69"/><path d="M112.652 713.367c16.825-19.282 33.406-38.696 54.599-55.681 6.257-5.014 13.431-9.257 21.548-12.568 19.275-7.86 37.845-6.799 55.632 2.59 11.326 5.978 20.633 13.52 29.461 21.305 21.179 18.676 45.746 33.942 77.155 42.669 1.117.311 1.981 1.112 2.963 1.685h-57.372c-19.175-10.558-37.887-21.605-57.644-31.545-22.852-11.499-44.704-10.926-66.931.94-16.029 8.559-29.839 18.873-41.607 30.605h-17.804Z" fill="#F5F5F5"/><path d="M549.865 713.366c11.439-7.509 25.54-10.647 40.122-12.812 28.501-4.231 57.545-4.426 86.408-5.443 30.557-1.077 60.935-3.109 91.306-5.641 22.51-1.877 44.628.108 66.197 5.274 21.909 5.247 42.77 12.418 64.157 18.621-116.064.002-232.126.001-348.19.001Z" fill="#fff"/><path d="M130.458 713.366c11.768-11.731 25.578-22.046 41.607-30.604 22.226-11.867 44.077-12.439 66.931-.941 19.755 9.939 38.469 20.988 57.644 31.545h-75.178c-17.145-5.003-34.291-5.539-51.436 0h-39.568Z" fill="#694C69"/><path d="M973.231 713.367c31.679-8.491 62.579-19.509 97.519-18.399 23.65.751 44.76 6.886 62.73 18.399H973.231Z" fill="#fff"/><path d="M458.542 201.616c5.376-12.655 10.387-25.399 16.19-37.949 24.754-53.539 118.369-96.3617 204.249-61.148 6.029 2.471 12.384 4.514 18.528 6.841 30.778 11.656 63.487 16.829 98.118 16.643 31.348-.169 62.434-2.51 93.592-4.532 52.165-3.385 103.905-8.509 154.091-19.879 56.25-12.7454 111.71-27.694 170.05-34.7 75.93-9.1194 135.65-39.0264 189.51-76.935 9.12.0169 18.24.0352 27.36.05346-31.68 18.07272-61.98 37.39534-94.02 55.15594-39.14 21.6946-82.14 36.0555-131.29 40.3016-50.15 4.3319-98.23 15.487-146.88 24.737-42.96 8.169-86.579 13.629-130.711 17.145-43.134 3.438-86.167 7.433-129.573 8.927-36.71 1.262-72.127-2.225-106.212-12.456-19.152-5.749-37.974-12.346-58.451-15.207-57.8-8.078-109.557 12.576-132.557 52.456-8.757 15.185-12.672 31.324-17.583 47.243-6.595 21.38-22.775 36.982-49.498 46.894-19.125 7.094-38.48 13.793-59.132 18.122-20.959 4.394-30.392-.876-29.428-16.928 1.2-19.992 6.932-39.691 7.938-59.727 1.403-27.964 4.571-55.829 8.649-83.651.839-5.73.793-11.573.467-17.3418-.797-14.0206-9.988-18.7448-27.915-14.2751-21.379 5.3301-38.544 15.5644-55.025 26.3809-26.925 17.669-49.797 38.015-68.878 60.347-26.496 31.012-62.615 52.87-108.663 66.677-36.2802 10.878-72.1592 22.467-111.07763 27.582-3.88027.511-7.82397.754-11.73507 1.124-.1248-8.31-.2534-16.623-.382-24.934 15.21788-2.258 79.2288-12.831 157.5877-72.974 20.204-16.439 41.409-32.222 62.166-48.296l.094-.079c29.614-20.3732 96.248-67.8833 187.446-107.70685 12.151-5.30625 26.131-8.0606 40.694-7.54882 13.027.45695 20.423 6.47463 20.16 15.94267-.115 4.1449-1.778 8.031-3.387 11.951-12.319 30.0181-32.945 70.574-44.05 113.229-6.025 23.145-8.865 46.673-6.597 70.303.691 7.199 2.156 15.02 13.215 17.913 11.071 2.895 21.212.447 29.727-5.454l.204-.12c14.194-9.222 18.1-14.649 23.009-24.127Z" fill="#694C69"/><path d="M1430.23-9.99094c-31.68 18.07272-61.98 37.39534-94.02 55.15594-39.14 21.6932-82.14 36.0555-131.29 40.3016-50.15 4.3319-98.23 15.4884-146.88 24.7374-42.96 8.169-86.58 13.628-130.709 17.145-43.135 3.437-86.167 7.433-129.573 8.926-36.71 1.263-72.127-2.224-106.212-12.456-19.152-5.749-37.974-12.346-58.451-15.207-57.8-8.077-109.557 12.577-132.557 52.457-8.757 15.184-12.672 31.324-17.583 47.243-6.595 21.379-22.775 36.982-49.498 46.894-19.125 7.093-38.48 13.793-59.132 18.122-20.959 4.394-30.392-.876-29.428-16.928 1.2-19.992 6.932-39.692 7.938-59.726 1.403-27.964 4.571-55.829 8.649-83.651.839-5.73.793-11.573.467-17.3418-.797-14.0206-9.988-18.7448-27.915-14.2751-21.379 5.3301-38.544 15.5644-55.025 26.3809-26.925 17.669-49.798 38.015-68.878 60.347-26.496 31.012-62.616 52.87-108.663 66.677-36.2802 10.878-72.1593 22.467-111.07765 27.582-3.87845.511-7.82405.754-11.73505 1.124-.8659 7.203-.8659 14.403-.0019 21.604 26.46335-.77 52.0358-5.515 77.6966-9.645 33.0106-5.313 66.113-8.381 99.886-5.104 10.103 1.269 33.164 3.089 43.878 6.45 21.297 6.678 30.321 13.904 19.726 38.496-6.741 15.646-17.866 29.882-26.742 44.84-3.584 6.04-8.381 11.915-7.478 18.94-2.928 15.864 1.739 21.536 22.729 26.311 25.499 5.801 51.92 8.852 77.823 13.474 38.266 6.829 74.181 18.285 110.435 29.169 19.804 5.944 39.989 11.336 61.945 11.24 17.744-.077 24-5.737 19.324-18.421-7.774-21.09-23.729-37.345-52.007-46.309-16.888-5.354-34.702-9.201-50.137-16.969-36.259-18.249-40.304-45.716-9.93-68.894 12.686-9.682 27.652-17.113 43.532-23.6 10.641-4.347 21.28-8.766 32.339-12.485 36.092-12.134 55.572-32.756 61.048-61.298 2.74-14.285 6.407-28.536 13.767-42.059 15.081-27.712 42.053-44.519 83.324-47.309 20.379-1.378 39.815 2.84 58.882 7.674 24.876 6.306 49.573 12.9 75.932 15.479 27.311 2.67 54.553 2.065 81.779.084 39.921-2.905 79.82-6.005 119.672-9.385 39.533-3.352 78.961-7.372 118.501-10.676 23.84-1.992 47.73-4.561 71.85-2.282 3.9.369 7.88.823 11.55 1.794 11.74 3.11 15.34 8.38 11.04 16.965-7.43 14.843-21.12 27.192-31.19 41.003-26.91 36.939-47.5 75.228-48.29 117.881-.01.482 0 .964 0 1.447.23 24.794 11.8 32.745 45.78 32.204 41.74-.665 70.53-14.026 84.94-43.576 14.04-28.787 20.86-58.699 28.42-88.536 4.87-19.196 9.09-38.474 15-57.532 4.52-14.561 13.59-27.395 28.05-37.584 53.19-37.4642 107.39-74.1116 167.49-105.72265 6.97-3.66685 14.3-6.90908 22.67-8.64831v-2.89494c-10.56.1195-21.11.2446-31.66.36696ZM346.149 403.571c-2.573 3.595-8.221 1.983-13.127 2.465-16.84-1.119-33.308-4.159-47.627-11.753-8.648-4.585-10.883-10.221-7.024-16.292 4.159-6.543 13.162-9.865 22.739-8.522 5.355.751 9.915 2.66 14.037 5.082 9.788 5.751 18.703 12.162 26.377 19.462 2.989 2.843 7.369 5.721 4.625 9.558Zm808.291-118.67c-9.14 5.403-19.42 9.274-30.87 5.018-11.67-4.339-13.06-12.926-11.73-21.377 2.58-16.481 10.81-31.254 27.34-43.025 3.49-2.483 7.62-4.657 11.94-6.307 10.36-3.963 19.86-.93 23.28 7.205 1.85 4.39 2.78 8.919 2.71 12.794-1.08 15.395-4.72 29.465-17.32 41.479-1.59 1.516-3.33 3.019-5.35 4.213Z" fill="#F5F5F5"/><path d="M1032.05 446.748c.92 12.999 1.52 26.046-3.07 38.771-10.29 28.492-37.753 44.94-73.736 54.642-14.765 3.982-25.271-2.249-25.891-13.856-.609-11.4 4.376-21.9 11.299-31.82 19.233-27.564 42.899-52.987 70.878-76.194 3.87-3.203 7.55-8.613 14.87-6.797 6.92 1.717 4.9 7.522 5.37 11.442.95 7.882.28 15.868.28 23.812Z" fill="#694C69"/><path d="M-21.4944 549.892c-.0077-55.646-.0153-111.292-.0211-166.942 16.15296 2.771 20.945277 12.026 23.58144 22.363 4.30272 16.871-.36864 33.528-3.024001 50.162-4.490879 28.12-10.323839 56.114-16.853739 84.024-.8295 3.549-1.2807 7.151-3.6826 10.393Z" fill="#fff"/><path d="M925.438 305.423c-4.036 32.432-15.045 62.959-45.366 88.235-3.062 2.553-6.029 6.111-11.124 4.524-5.632-1.755-5.649-6.347-5.09-10.129 2.408-16.274 4.915-32.547 7.964-48.763 2.736-14.548 5.731-29.084 11.249-43.265 2.095-5.381 4.75-10.589 9.293-15.075 8.861-8.75 21.836-7.555 27.546 2.455 3.998 6.999 5.445 14.363 5.528 22.018Z" fill="#694C69"/><path d="M458.546 201.611c5.372-12.649 10.383-25.394 16.185-37.943 24.755-53.539 118.37-96.3612 204.25-61.148 6.029 2.472 12.384 4.515 18.528 6.842 30.778 11.655 63.487 16.828 98.118 16.643 31.348-.169 62.434-2.51 93.592-4.532 52.165-3.386 103.905-8.509 154.091-19.879 56.25-12.7458 111.71-27.6945 170.05-34.7006 75.93-9.1193 135.65-39.0263 189.51-76.9349-8.57.0099-17.14.0197-25.7.031-37.44 28.4307-81.78 49.0595-134.26 58.1606-73.43 12.7341-145.3 28.9537-216.8 46.4331-42.924 10.4948-87.791 14.3818-132.88 16.7298-25.964 1.353-51.901 2.445-77.938 2.97-46.004.926-86.105-9.464-121.281-30.9084-7.07-4.3094-14.83-8.0283-22.43-11.8526-25.674-12.9211-52.969-14.5493-81.866-6.4634-31.6 8.8424-60.521 21.3304-89.146 34.2825-7.279 3.2939-14.636 6.5729-22.341 9.2679-13.289 4.649-20.696 1.439-20.606-9.2679.21-24.4264 14.585-44.1653 39.341-60.001 12.014-7.6838 26.168-12.9324 40.804-17.4893 7.267-2.2622 14.715-4.3754 20.886-8.1098 9.715-5.87845 10.564-10.44795 3.83-18.14159-1.582-1.80811-2.905-3.73574-4.341-5.60711-12.132-.1195-24.273-.3529-36.413-.3389-56.788.0619-113.575.1913-170.363.2967-39.051 19.3789-75.52 41.1916-111.464 63.4823-33.736 20.9213-70.564 37.8622-112.961 47.7886-34.4681 8.07-58.1724 25.524-77.3436 47.105-12.5856 14.167-25.9699 27.939-43.18847 39.396-8.04096 5.35-16.16064 10.767-27.85153 11.43-.0941 12.544-.1901 26.885-.2841 39.435 21.980114-2.65 59.5968-13.265 96.8467-33.018 26.369-13.363 49.891-30.761 71.382-47.972 15.515-12.426 32.398-26.258 48.628-38.163 22.633-16.602 115.877-77.161 171.022-100.9154 17.883-7.7035 38.893-16.6414 59.539-16.6414 12.52 0 24.157 7.43493 18.879 20.955-3.949 10.1162-35.969 78.2928-49.284 134.1748-6.16 34.635-5.027 40.871-2.98 58.792 2.049 17.937 17.777 22.487 39.149 13.097 10.928-4.81 19.207-11.198 27.091-27.285Z" fill="#fff"/><path d="M1377.17-10.0148c-37.44 28.4307-81.78 49.0595-134.26 58.1606-73.43 12.7341-145.3 28.9537-216.8 46.4331-42.922 10.4941-87.789 14.3821-132.878 16.7301-25.964 1.352-51.901 2.445-77.939 2.969-46.003.927-86.104-9.463-121.28-30.9077-7.07-4.3094-14.83-8.0283-22.43-11.8526-25.674-12.9211-52.969-14.5493-81.866-6.4634-31.6 8.8424-60.521 21.3305-89.146 34.2825-7.279 3.2942-14.636 6.5732-22.341 9.2682-13.289 4.648-20.696 1.439-20.606-9.2682.21-24.4264 14.585-44.1653 39.341-60.001 12.014-7.6838 26.168-12.9324 40.804-17.4893 7.267-2.2622 14.715-4.3754 20.886-8.1098 9.715-5.87846 10.564-10.44796 3.83-18.14159-1.582-1.80811-2.905-3.73574-4.341-5.60711 34.12-.5357 68.231-.6904 102.346.08012 12.758 7.95656 26.114 15.34649 36.967 24.91998 14.859 13.1081 22.128 28.9537 31.392 44.0809 13.686 22.3427 37.216 35.6983 69.877 38.8899 69.295 6.7711 138.71 4.7061 205.614-9.6493 81.74-17.5385 162.6-37.2183 245-53.2621 39.68-7.7246 74.27-23.3509 103.25-45.03421 8.19-.62009 16.39-.57509 24.58-.02809ZM351.366-10.0556c-39.051 19.3789-75.52 41.1916-111.464 63.4823-33.736 20.9213-70.564 37.8622-112.961 47.7883-34.4681 8.071-58.1724 25.525-77.3436 47.105-12.5856 14.167-25.9699 27.939-43.18844 39.397-8.04096 5.349-16.16064 10.767-27.85156 11.429-.6201-30.721-.958-61.437.1863-92.134 5.5949-.954 7.2403-4.685 9.0605-7.7666C-4.8672 86.8361-.37056 73.8109 2.976 60.5144c3.9168-15.5631 4.7808-31.6266 13.3728-46.4543 5.1245-8.84091 15.8208-12.80302 28.608-10.93304C58.1165 5.05047 67.753 11.3887 77.5987 17.3164c16.2586 9.7858 32.0163 20.0833 51.6753 26.2275 25.779 8.0564 50.528 6.4297 74.123-4.6412.782-.2615 1.561-.5216 2.343-.7831 3.646-.3065 6.804-1.2289 8.72-3.7105.544-.0407.987-.2165 1.333-.5258.485-.239.971-.478 1.455-.7156.925-.3586 1.853-.7185 2.778-1.077l.498.0253.094-.3782c.46-.0774.8-.2686 1.019-.5751.568-.2995 1.135-.599 1.703-.897.862-.3445 1.726-.6876 2.588-1.032l.532.0042.119-.3965c.451-.0731.78-.2629.983-.5652.546-.3051 1.089-.6116 1.634-.9167l.313-.1898c1.317-.0746 2.452-.3544 2.894-1.399.483-.0408.86-.2109 1.125-.5104.464-.2643.929-.5301 1.394-.7944l.539-.3487c1.214-.0225 2.197-.2896 2.517-1.264.636-.1307 1.168-.381 1.596-.748l.639-.0576.211-.4513c.446-.0731.768-.2601.97-.5596.532-.3065 1.066-.613 1.597-.9195l.359-.2348c.849-.457 1.7-.9139 2.55-1.3723.638-.1406 1.169-.3979 1.596-.7705l.603-.0422.176-.4302c.471-.0984.822-.3051 1.056-.6186.503-.2911 1.004-.5821 1.507-.8732l.419-.2784c.635-.3838 1.269-.7676 1.905-1.1515.819-.3641 1.641-.7283 2.461-1.0924l.422.0267.025-.3346c.513-.1533.909-.4036 1.191-.7523.708.0085 1.131-.2432 1.269-.755 12.593-7.12417 25.188-14.24697 37.782-21.37117 18.343-.77333 36.699-.57223 55.054-.12233Z" fill="#694C69"/><path d="M1352.59-9.98668c-28.98 21.68328-63.57 37.30958-103.25 45.03418-82.4 16.0439-163.27 35.7222-245 53.2621-66.906 14.3554-136.32 16.4204-205.616 9.6493-32.661-3.1916-56.191-16.5472-69.877-38.8899-9.266-15.1257-16.535-30.9728-31.392-44.0809-10.851-9.57487-24.207-16.9634-36.967-24.91995 19.348-.76765 38.701-.60035 58.057-.11105 25.618 15.29866 44.062 34.4006 55.843 56.9317 11.192 21.405 32.69 33.214 63.116 36.8527 45.924 5.4904 91.799 4.9547 137.595-.8591 39.351-4.9955 76.631-15.196 114.231-24.5445 47.28-11.757 96.38-18.7364 143.95-29.6933 35.12-8.0916 68.12-19.18209 94.52-38.7578 8.27.0407 16.53.0843 24.79.12652Z" fill="#F5F5F5"/><path d="M1327.8-10.1147c-26.4 19.57576-59.4 30.6663-94.52 38.7578-47.57 10.957-96.67 17.9364-143.95 29.6933-37.6 9.3485-74.88 19.5491-114.231 24.5446-45.798 5.8138-91.67 6.3509-137.595.859-30.426-3.6387-51.924-15.4477-63.116-36.8526-11.781-22.5312-30.225-41.63309-55.843-56.9318 14.993-.0253 29.986-.0492 44.981-.0745 22.583 15.34649 41.033 33.1647 58.374 51.7028 13.05 13.949 31.603 22.1459 53.852 26.2768 42.432 7.8778 84.976 7.0665 126.848-1.0236 68.49-13.2333 135.99-29.1112 204.56-42.2123 35.07-6.701 68.39-16.58802 95.92-34.7367 8.24-.0014 16.48-.0014 24.72-.0028Z" fill="#694C69"/><path d="M1303.08-10.1119c-27.53 18.15004-60.84 28.0356-95.92 34.7366-68.57 13.1011-136.07 28.9791-204.56 42.2124-41.87 8.0887-84.414 8.9013-126.848 1.0235-22.249-4.1308-40.802-12.3278-53.852-26.2767-17.343-18.5367-35.793-36.35495-58.374-51.7014 14.105-.0029 28.211-.0043 42.309-.0085 17.747 12.21535 35.446 24.4757 53.279 36.6305 10.379 7.0764 21.21 13.7085 33.847 18.6633 34.71 13.6129 71.852 14.2161 108.819 8.668 68.88-10.3341 136.56-24.3955 204.17-38.4373 25.31-5.2556 49.68-12.73831 70.19-25.4725 8.98-.0112 17.96-.0239 26.94-.0379Z" fill="#fff"/><path d="M1276.14-10.0725c-20.52 12.73415-44.88 20.2169-70.19 25.4725-67.61 14.0417-135.29 28.1031-204.17 38.4372-36.969 5.5467-74.113 4.9435-108.823-8.668-12.635-4.9561-23.466-11.5868-33.847-18.6632-17.833-12.1563-35.532-24.41519-53.278-36.6305 15.531.0478 31.054.0942 46.579.14059 19.993 11.42375 40.134 22.69001 61.221 33.03681 30.662 15.0442 64.623 18.4706 100.288 15.0582 49.97-4.779 98.77-13.8505 147.54-22.78 30.3-5.54806 60.37-12.04097 86.58-25.32204 9.37-.02816 18.73-.05486 28.1-.08156Z" fill="#694C69"/><path d="M1248.04-9.99272c-26.21 13.28108-56.28 19.77399-86.58 25.32202-48.77 8.931-97.57 18.0011-147.53 22.7801-35.673 3.4123-69.634-.0127-100.296-15.0583-21.087-10.3468-41.228-21.61304-61.221-33.03679 16.952-.03791 33.905-.07731 50.864-.11671 9.382 5.74634 20.153 9.937623 30.484 14.62242C963.542 18.0232 995.77 23.4729 1030.83 21.9024c31.27-1.4004 61.96-5.205 92.5-9.835 32.12-4.87036 64.02-10.46484 93.21-22.06293 10.5-.60317 21-.61017 31.5.00281Z" fill="#F5F5F5"/><path d="M1216.54-9.99674c-29.19 11.59809-61.09 17.19257-93.21 22.06294-30.54 4.63-61.22 8.4346-92.5 9.835-35.06 1.5691-67.288-3.8792-97.069-17.38239-10.331-4.683391-21.1-8.87468-30.484-14.62241 17.536-.3585 35.073-.62 52.607.15748 16.158 7.23949 33.759 11.75838 52.216 14.51695 26.41 3.94524 53 3.2352 79.53.93921 30.99-2.68125 61.69-6.436673 90.67-15.48147 12.75-.66647 25.49-.62847 38.24-.02531Z" fill="#694C69"/><path d="M1178.3-9.97141c-28.98 9.044795-59.68 12.80022-90.67 15.48146-26.53 2.296-53.12 3.00603-79.53-.9392-18.455-2.75858-36.056-7.27746-52.215-14.51696 18.039-.14199 36.1-.77609 54.115-.33319 52.18 1.28365 104.35-.1027 156.53-.0745 3.92.0028 7.85.2502 11.77.38239Z" fill="#fff"/><path d="M247.121-10.0571c-12.484 7.17479-25.96 13.15169-40.456 17.88288-24.551 8.01142-48.025 6.62792-70.391-4.36422-8.218-4.038031-16.072-8.40226-23.14-13.49336 44.661-.0099 89.324-.0169 133.987-.0253ZM1177.11 239.209c-1.08 15.395-4.72 29.465-17.32 41.479-1.59 1.516-3.33 3.019-5.35 4.213-9.14 5.403-19.42 9.274-30.87 5.018-11.67-4.339-13.06-12.926-11.73-21.377 2.58-16.481 10.81-31.254 27.34-43.025 3.49-2.483 7.62-4.657 11.94-6.307 10.36-3.963 19.86-.93 23.28 7.205 1.85 4.39 2.78 8.919 2.71 12.794ZM333.022 406.036c-16.84-1.119-33.308-4.159-47.627-11.753-8.648-4.585-10.883-10.22-7.022-16.292 4.159-6.543 13.162-9.865 22.739-8.522 5.355.751 9.915 2.66 14.037 5.082 9.788 5.751 18.702 12.162 26.377 19.461 2.989 2.843 7.369 5.722 4.623 9.558-2.573 3.596-8.221 1.984-13.127 2.466Z" fill="#694C69"/><path d="M247.121-10.0571c-12.484 7.17486-25.96 13.15176-40.456 17.88295-24.551 8.01135-48.025 6.62785-70.391-4.36422-8.218-4.039438-16.072-8.40226-23.14-13.49343-42.8351-.1096-85.6684-.1645-128.5017-.3908-5.4259-.0281-6.6009 1.63235-6.5741 5.17687.2535 32.06383.3418 64.12903.48 96.19293.0692 5.3484.1383 10.6978.2055 16.0638 5.5949-.955 7.2403-4.685 9.0605-7.767C-4.86719 86.8346-.370552 73.8094 2.97601 60.5129c3.9168-15.563 4.7808-31.6266 13.37279-46.4542 5.1245-8.84098 15.8208-12.80308 28.608-10.9331C58.1165 5.049 67.753 11.3873 77.5987 17.3149c16.2586 9.7858 32.0163 20.0848 51.6753 26.2276 25.779 8.0564 50.528 6.4296 74.125-4.6412.778-.2601 1.559-.5217 2.341-.7818 3.646-.3065 6.804-1.2288 8.726-3.7118.538-.0408.981-.2165 1.327-.5259.485-.239.971-.478 1.459-.7184.923-.3571 1.849-.7171 2.774-1.0756l.498.0253s.094-.3782.101-.381c.455-.0731.795-.2658 1.012-.5723.568-.3009 1.139-.6003 1.705-.8984.86-.3431 1.724-.6861 2.586-1.0306l.532.0042s.119-.3965.125-.3993c.445-.0703.772-.2587.977-.5624.546-.3065 1.093-.613 1.636-.9181-.002.0014.311-.1884.311-.1884 1.319-.0745 2.452-.3543 2.899-1.4004.48-.0394.855-.2095 1.122-.509.464-.2643.929-.53 1.397-.7958-.003.0015.536-.3458.536-.3458 1.213-.0225 2.197-.2897 2.523-1.2654.63-.1294 1.162-.3797 1.59-.7466l.639-.0577s.211-.4513.217-.4541c.44-.0703.762-.2573.964-.5568.534-.3079 1.067-.6144 1.599-.9209-.002.0014.357-.2334.357-.2334.853-.4584 1.707-.9153 2.554-1.3723.632-.1392 1.163-.3964 1.59-.7704l.603-.0422s.174-.4303.182-.4331c.465-.0956.816-.3023 1.05-.6158.503-.291 1.004-.5821 1.509-.8745-.002.0014.415-.277.415-.277.636-.3853 1.271-.7691 1.905-1.1529.82-.3628 1.639-.7269 2.461-1.0911 0 0 .459-.3135.453-.3107.507-.1491.903-.4007 1.185-.7494.369-.3037.793-.5568 1.271-.7564 12.591-7.12143 25.185-14.24564 37.78-21.36984-16.397-.75786-32.792-.57786-49.189-.12236Z" fill="#F5F5F5"/></g></g><defs><clipPath id="a"><path fill="#fff" d="M0 0h1440v703H0z"/></clipPath></defs></svg>